<?xml version="1.0" encoding="UTF-8" standalone="no"?>
<!DOCTYPE svg PUBLIC "-//W3C//DTD SVG 1.1//EN"
 "http://www.w3.org/Graphics/SVG/1.1/DTD/svg11.dtd">
<!-- Generated by graphviz version 2.48.0 (0)
 -->
<!-- Pages: 1 -->
<svg width="4473pt" height="548pt"
 viewBox="0.00 0.00 4472.73 548.00" xmlns="http://www.w3.org/2000/svg" xmlns:xlink="http://www.w3.org/1999/xlink">
<g id="graph0" class="graph" transform="scale(1 1) rotate(0) translate(4 544)">
<polygon fill="white" stroke="transparent" points="-4,4 -4,-544 4468.73,-544 4468.73,4 -4,4"/>
<!-- [root] module.kosa&#45;sandbox.aws_lightsail_instance.kosa_server (expand) -->
<g id="node1" class="node">
<title>[root] module.kosa&#45;sandbox.aws_lightsail_instance.kosa_server (expand)</title>
<polygon fill="none" stroke="black" points="2443.27,-180 2021.27,-180 2021.27,-144 2443.27,-144 2443.27,-180"/>
<text text-anchor="middle" x="2232.27" y="-158.3" font-family="Times,serif" font-size="14.00">module.kosa&#45;sandbox.aws_lightsail_instance.kosa_server</text>
</g>
<!-- [root] provider[&quot;registry.terraform.io/hashicorp/aws&quot;] -->
<g id="node11" class="node">
<title>[root] provider[&quot;registry.terraform.io/hashicorp/aws&quot;]</title>
<polygon fill="none" stroke="black" points="3174.27,-108 2849.01,-90 3174.27,-72 3499.54,-90 3174.27,-108"/>
<text text-anchor="middle" x="3174.27" y="-86.3" font-family="Times,serif" font-size="14.00">provider[&quot;registry.terraform.io/hashicorp/aws&quot;]</text>
</g>
<!-- [root] module.kosa&#45;sandbox.aws_lightsail_instance.kosa_server (expand)&#45;&gt;[root] provider[&quot;registry.terraform.io/hashicorp/aws&quot;] -->
<g id="edge11" class="edge">
<title>[root] module.kosa&#45;sandbox.aws_lightsail_instance.kosa_server (expand)&#45;&gt;[root] provider[&quot;registry.terraform.io/hashicorp/aws&quot;]</title>
<path fill="none" stroke="black" d="M2443.38,-145.31C2623.17,-131.95 2876.51,-113.13 3032.81,-101.51"/>
<polygon fill="black" stroke="black" points="3033.25,-104.99 3042.96,-100.76 3032.73,-98.01 3033.25,-104.99"/>
</g>
<!-- [root] module.kosa&#45;sandbox.var.server_availability_zone (expand) -->
<g id="node17" class="node">
<title>[root] module.kosa&#45;sandbox.var.server_availability_zone (expand)</title>
<ellipse fill="none" stroke="black" cx="313.27" cy="-90" rx="313.04" ry="18"/>
<text text-anchor="middle" x="313.27" y="-86.3" font-family="Times,serif" font-size="14.00">[root] module.kosa&#45;sandbox.var.server_availability_zone (expand)</text>
</g>
<!-- [root] module.kosa&#45;sandbox.aws_lightsail_instance.kosa_server (expand)&#45;&gt;[root] module.kosa&#45;sandbox.var.server_availability_zone (expand) -->
<g id="edge6" class="edge">
<title>[root] module.kosa&#45;sandbox.aws_lightsail_instance.kosa_server (expand)&#45;&gt;[root] module.kosa&#45;sandbox.var.server_availability_zone (expand)</title>
<path fill="none" stroke="black" d="M2021.17,-155.29C1715.63,-146.74 1132.41,-129.29 636.27,-108 605.39,-106.67 572.86,-105.13 540.81,-103.53"/>
<polygon fill="black" stroke="black" points="540.59,-100.01 530.43,-103.01 540.24,-107.01 540.59,-100.01"/>
</g>
<!-- [root] module.kosa&#45;sandbox.var.server_blueprint_id (expand) -->
<g id="node18" class="node">
<title>[root] module.kosa&#45;sandbox.var.server_blueprint_id (expand)</title>
<ellipse fill="none" stroke="black" cx="937.27" cy="-90" rx="292.45" ry="18"/>
<text text-anchor="middle" x="937.27" y="-86.3" font-family="Times,serif" font-size="14.00">[root] module.kosa&#45;sandbox.var.server_blueprint_id (expand)</text>
</g>
<!-- [root] module.kosa&#45;sandbox.aws_lightsail_instance.kosa_server (expand)&#45;&gt;[root] module.kosa&#45;sandbox.var.server_blueprint_id (expand) -->
<g id="edge7" class="edge">
<title>[root] module.kosa&#45;sandbox.aws_lightsail_instance.kosa_server (expand)&#45;&gt;[root] module.kosa&#45;sandbox.var.server_blueprint_id (expand)</title>
<path fill="none" stroke="black" d="M2020.9,-149.92C1819.67,-139.33 1508.32,-122.83 1238.27,-108 1211.04,-106.51 1182.42,-104.91 1154.12,-103.33"/>
<polygon fill="black" stroke="black" points="1154.3,-99.83 1144.12,-102.77 1153.91,-106.82 1154.3,-99.83"/>
</g>
<!-- [root] module.kosa&#45;sandbox.var.server_name (expand) -->
<g id="node19" class="node">
<title>[root] module.kosa&#45;sandbox.var.server_name (expand)</title>
<ellipse fill="none" stroke="black" cx="1509.27" cy="-90" rx="261.85" ry="18"/>
<text text-anchor="middle" x="1509.27" y="-86.3" font-family="Times,serif" font-size="14.00">[root] module.kosa&#45;sandbox.var.server_name (expand)</text>
</g>
<!-- [root] module.kosa&#45;sandbox.aws_lightsail_instance.kosa_server (expand)&#45;&gt;[root] module.kosa&#45;sandbox.var.server_name (expand) -->
<g id="edge8" class="edge">
<title>[root] module.kosa&#45;sandbox.aws_lightsail_instance.kosa_server (expand)&#45;&gt;[root] module.kosa&#45;sandbox.var.server_name (expand)</title>
<path fill="none" stroke="black" d="M2056.33,-143.97C1936.42,-132.36 1779.12,-117.13 1663.99,-105.98"/>
<polygon fill="black" stroke="black" points="1664.33,-102.5 1654.04,-105.02 1663.65,-109.46 1664.33,-102.5"/>
</g>
<!-- [root] module.kosa&#45;sandbox.var.server_size (expand) -->
<g id="node20" class="node">
<title>[root] module.kosa&#45;sandbox.var.server_size (expand)</title>
<ellipse fill="none" stroke="black" cx="2044.27" cy="-90" rx="254.55" ry="18"/>
<text text-anchor="middle" x="2044.27" y="-86.3" font-family="Times,serif" font-size="14.00">[root] module.kosa&#45;sandbox.var.server_size (expand)</text>
</g>
<!-- [root] module.kosa&#45;sandbox.aws_lightsail_instance.kosa_server (expand)&#45;&gt;[root] module.kosa&#45;sandbox.var.server_size (expand) -->
<g id="edge9" class="edge">
<title>[root] module.kosa&#45;sandbox.aws_lightsail_instance.kosa_server (expand)&#45;&gt;[root] module.kosa&#45;sandbox.var.server_size (expand)</title>
<path fill="none" stroke="black" d="M2186.28,-143.88C2159.93,-134.06 2126.7,-121.69 2099.01,-111.38"/>
<polygon fill="black" stroke="black" points="2100.06,-108.04 2089.46,-107.83 2097.61,-114.6 2100.06,-108.04"/>
</g>
<!-- [root] module.kosa&#45;sandbox.var.server_tags (expand) -->
<g id="node21" class="node">
<title>[root] module.kosa&#45;sandbox.var.server_tags (expand)</title>
<ellipse fill="none" stroke="black" cx="2574.27" cy="-90" rx="256.95" ry="18"/>
<text text-anchor="middle" x="2574.27" y="-86.3" font-family="Times,serif" font-size="14.00">[root] module.kosa&#45;sandbox.var.server_tags (expand)</text>
</g>
<!-- [root] module.kosa&#45;sandbox.aws_lightsail_instance.kosa_server (expand)&#45;&gt;[root] module.kosa&#45;sandbox.var.server_tags (expand) -->
<g id="edge10" class="edge">
<title>[root] module.kosa&#45;sandbox.aws_lightsail_instance.kosa_server (expand)&#45;&gt;[root] module.kosa&#45;sandbox.var.server_tags (expand)</title>
<path fill="none" stroke="black" d="M2315.5,-143.97C2366.95,-133.43 2432.95,-119.93 2485.42,-109.19"/>
<polygon fill="black" stroke="black" points="2486.29,-112.58 2495.38,-107.15 2484.88,-105.72 2486.29,-112.58"/>
</g>
<!-- [root] module.kosa&#45;sandbox.aws_lightsail_instance_public_ports.kosa_server_ports (expand) -->
<g id="node2" class="node">
<title>[root] module.kosa&#45;sandbox.aws_lightsail_instance_public_ports.kosa_server_ports (expand)</title>
<polygon fill="none" stroke="black" points="3822.77,-252 3261.77,-252 3261.77,-216 3822.77,-216 3822.77,-252"/>
<text text-anchor="middle" x="3542.27" y="-230.3" font-family="Times,serif" font-size="14.00">module.kosa&#45;sandbox.aws_lightsail_instance_public_ports.kosa_server_ports</text>
</g>
<!-- [root] module.kosa&#45;sandbox.aws_lightsail_instance_public_ports.kosa_server_ports (expand)&#45;&gt;[root] module.kosa&#45;sandbox.aws_lightsail_instance.kosa_server (expand) -->
<g id="edge12" class="edge">
<title>[root] module.kosa&#45;sandbox.aws_lightsail_instance_public_ports.kosa_server_ports (expand)&#45;&gt;[root] module.kosa&#45;sandbox.aws_lightsail_instance.kosa_server (expand)</title>
<path fill="none" stroke="black" d="M3261.49,-217.11C3254.68,-216.73 3247.94,-216.36 3241.27,-216 2970.2,-201.23 2658.12,-184.94 2453.68,-174.38"/>
<polygon fill="black" stroke="black" points="2453.58,-170.87 2443.42,-173.85 2453.22,-177.86 2453.58,-170.87"/>
</g>
<!-- [root] module.kosa&#45;sandbox.var.ports (expand) -->
<g id="node22" class="node">
<title>[root] module.kosa&#45;sandbox.var.ports (expand)</title>
<ellipse fill="none" stroke="black" cx="3565.27" cy="-162" rx="226.66" ry="18"/>
<text text-anchor="middle" x="3565.27" y="-158.3" font-family="Times,serif" font-size="14.00">[root] module.kosa&#45;sandbox.var.ports (expand)</text>
</g>
<!-- [root] module.kosa&#45;sandbox.aws_lightsail_instance_public_ports.kosa_server_ports (expand)&#45;&gt;[root] module.kosa&#45;sandbox.var.ports (expand) -->
<g id="edge13" class="edge">
<title>[root] module.kosa&#45;sandbox.aws_lightsail_instance_public_ports.kosa_server_ports (expand)&#45;&gt;[root] module.kosa&#45;sandbox.var.ports (expand)</title>
<path fill="none" stroke="black" d="M3547.96,-215.7C3550.52,-207.9 3553.61,-198.51 3556.46,-189.83"/>
<polygon fill="black" stroke="black" points="3559.86,-190.7 3559.65,-180.1 3553.21,-188.51 3559.86,-190.7"/>
</g>
<!-- [root] module.kosa&#45;sandbox.aws_route53_record.kosa_server_dns_record (expand) -->
<g id="node3" class="node">
<title>[root] module.kosa&#45;sandbox.aws_route53_record.kosa_server_dns_record (expand)</title>
<polygon fill="none" stroke="black" points="3231.77,-252 2738.77,-252 2738.77,-216 3231.77,-216 3231.77,-252"/>
<text text-anchor="middle" x="2985.27" y="-230.3" font-family="Times,serif" font-size="14.00">module.kosa&#45;sandbox.aws_route53_record.kosa_server_dns_record</text>
</g>
<!-- [root] module.kosa&#45;sandbox.aws_route53_record.kosa_server_dns_record (expand)&#45;&gt;[root] module.kosa&#45;sandbox.aws_lightsail_instance.kosa_server (expand) -->
<g id="edge14" class="edge">
<title>[root] module.kosa&#45;sandbox.aws_route53_record.kosa_server_dns_record (expand)&#45;&gt;[root] module.kosa&#45;sandbox.aws_lightsail_instance.kosa_server (expand)</title>
<path fill="none" stroke="black" d="M2802.03,-215.97C2687.93,-205.36 2541.33,-191.73 2425.41,-180.95"/>
<polygon fill="black" stroke="black" points="2425.64,-177.46 2415.36,-180.02 2424.99,-184.43 2425.64,-177.46"/>
</g>
<!-- [root] module.kosa&#45;sandbox.data.aws_route53_zone.app_domain (expand) -->
<g id="node4" class="node">
<title>[root] module.kosa&#45;sandbox.data.aws_route53_zone.app_domain (expand)</title>
<polygon fill="none" stroke="black" points="3320.77,-180 2889.77,-180 2889.77,-144 3320.77,-144 3320.77,-180"/>
<text text-anchor="middle" x="3105.27" y="-158.3" font-family="Times,serif" font-size="14.00">module.kosa&#45;sandbox.data.aws_route53_zone.app_domain</text>
</g>
<!-- [root] module.kosa&#45;sandbox.aws_route53_record.kosa_server_dns_record (expand)&#45;&gt;[root] module.kosa&#45;sandbox.data.aws_route53_zone.app_domain (expand) -->
<g id="edge15" class="edge">
<title>[root] module.kosa&#45;sandbox.aws_route53_record.kosa_server_dns_record (expand)&#45;&gt;[root] module.kosa&#45;sandbox.data.aws_route53_zone.app_domain (expand)</title>
<path fill="none" stroke="black" d="M3014.63,-215.88C3030.32,-206.72 3049.83,-195.34 3066.73,-185.48"/>
<polygon fill="black" stroke="black" points="3068.93,-188.25 3075.8,-180.19 3065.4,-182.21 3068.93,-188.25"/>
</g>
<!-- [root] module.kosa&#45;sandbox.data.aws_route53_zone.app_domain (expand)&#45;&gt;[root] provider[&quot;registry.terraform.io/hashicorp/aws&quot;] -->
<g id="edge17" class="edge">
<title>[root] module.kosa&#45;sandbox.data.aws_route53_zone.app_domain (expand)&#45;&gt;[root] provider[&quot;registry.terraform.io/hashicorp/aws&quot;]</title>
<path fill="none" stroke="black" d="M3122.33,-143.7C3131.02,-134.88 3141.72,-124.03 3151.14,-114.47"/>
<polygon fill="black" stroke="black" points="3153.83,-116.72 3158.36,-107.14 3148.85,-111.81 3153.83,-116.72"/>
</g>
<!-- [root] module.kosa&#45;sandbox (expand) -->
<g id="node23" class="node">
<title>[root] module.kosa&#45;sandbox (expand)</title>
<ellipse fill="none" stroke="black" cx="2044.27" cy="-18" rx="182.77" ry="18"/>
<text text-anchor="middle" x="2044.27" y="-14.3" font-family="Times,serif" font-size="14.00">[root] module.kosa&#45;sandbox (expand)</text>
</g>
<!-- [root] module.kosa&#45;sandbox.data.aws_route53_zone.app_domain (expand)&#45;&gt;[root] module.kosa&#45;sandbox (expand) -->
<g id="edge16" class="edge">
<title>[root] module.kosa&#45;sandbox.data.aws_route53_zone.app_domain (expand)&#45;&gt;[root] module.kosa&#45;sandbox (expand)</title>
<path fill="none" stroke="black" d="M3320.93,-144.79C3409.5,-135.9 3494.68,-123.5 3508.27,-108 3518.82,-95.97 3519.38,-83.52 3508.27,-72 3464.88,-27 2624.44,-19.86 2236.96,-18.97"/>
<polygon fill="black" stroke="black" points="2236.77,-15.47 2226.76,-18.95 2236.75,-22.47 2236.77,-15.47"/>
</g>
<!-- [root] module.kosa&#45;sandbox.null_resource.ansible_config (expand) -->
<g id="node5" class="node">
<title>[root] module.kosa&#45;sandbox.null_resource.ansible_config (expand)</title>
<polygon fill="none" stroke="black" points="4327.77,-252 3952.77,-252 3952.77,-216 4327.77,-216 4327.77,-252"/>
<text text-anchor="middle" x="4140.27" y="-230.3" font-family="Times,serif" font-size="14.00">module.kosa&#45;sandbox.null_resource.ansible_config</text>
</g>
<!-- [root] module.kosa&#45;sandbox.null_resource.ansible_config (expand)&#45;&gt;[root] module.kosa&#45;sandbox.aws_lightsail_instance.kosa_server (expand) -->
<g id="edge18" class="edge">
<title>[root] module.kosa&#45;sandbox.null_resource.ansible_config (expand)&#45;&gt;[root] module.kosa&#45;sandbox.aws_lightsail_instance.kosa_server (expand)</title>
<path fill="none" stroke="black" d="M3952.59,-221.98C3912.87,-219.83 3871.19,-217.72 3832.27,-216 3340.16,-194.27 2762.54,-177.23 2453.69,-168.79"/>
<polygon fill="black" stroke="black" points="2453.36,-165.28 2443.27,-168.51 2453.17,-172.28 2453.36,-165.28"/>
</g>
<!-- [root] provider[&quot;registry.terraform.io/hashicorp/null&quot;] -->
<g id="node12" class="node">
<title>[root] provider[&quot;registry.terraform.io/hashicorp/null&quot;]</title>
<polygon fill="none" stroke="black" points="4140.27,-180 3815.85,-162 4140.27,-144 4464.7,-162 4140.27,-180"/>
<text text-anchor="middle" x="4140.27" y="-158.3" font-family="Times,serif" font-size="14.00">provider[&quot;registry.terraform.io/hashicorp/null&quot;]</text>
</g>
<!-- [root] module.kosa&#45;sandbox.null_resource.ansible_config (expand)&#45;&gt;[root] provider[&quot;registry.terraform.io/hashicorp/null&quot;] -->
<g id="edge19" class="edge">
<title>[root] module.kosa&#45;sandbox.null_resource.ansible_config (expand)&#45;&gt;[root] provider[&quot;registry.terraform.io/hashicorp/null&quot;]</title>
<path fill="none" stroke="black" d="M4140.27,-215.7C4140.27,-207.98 4140.27,-198.71 4140.27,-190.11"/>
<polygon fill="black" stroke="black" points="4143.77,-190.1 4140.27,-180.1 4136.77,-190.1 4143.77,-190.1"/>
</g>
<!-- [root] module.kosa&#45;sandbox.null_resource.ansible_deploy (expand) -->
<g id="node6" class="node">
<title>[root] module.kosa&#45;sandbox.null_resource.ansible_deploy (expand)</title>
<polygon fill="none" stroke="black" points="4333.27,-324 3953.27,-324 3953.27,-288 4333.27,-288 4333.27,-324"/>
<text text-anchor="middle" x="4143.27" y="-302.3" font-family="Times,serif" font-size="14.00">module.kosa&#45;sandbox.null_resource.ansible_deploy</text>
</g>
<!-- [root] module.kosa&#45;sandbox.null_resource.ansible_deploy (expand)&#45;&gt;[root] module.kosa&#45;sandbox.null_resource.ansible_config (expand) -->
<g id="edge20" class="edge">
<title>[root] module.kosa&#45;sandbox.null_resource.ansible_deploy (expand)&#45;&gt;[root] module.kosa&#45;sandbox.null_resource.ansible_config (expand)</title>
<path fill="none" stroke="black" d="M4142.53,-287.7C4142.2,-279.98 4141.8,-270.71 4141.43,-262.11"/>
<polygon fill="black" stroke="black" points="4144.93,-261.95 4141.01,-252.1 4137.94,-262.25 4144.93,-261.95"/>
</g>
<!-- [root] module.kosa&#45;sandbox.null_resource.ansible_seed_data (expand) -->
<g id="node7" class="node">
<title>[root] module.kosa&#45;sandbox.null_resource.ansible_seed_data (expand)</title>
<polygon fill="none" stroke="black" points="3885.27,-396 3481.27,-396 3481.27,-360 3885.27,-360 3885.27,-396"/>
<text text-anchor="middle" x="3683.27" y="-374.3" font-family="Times,serif" font-size="14.00">module.kosa&#45;sandbox.null_resource.ansible_seed_data</text>
</g>
<!-- [root] module.kosa&#45;sandbox.null_resource.ansible_seed_data (expand)&#45;&gt;[root] module.kosa&#45;sandbox.null_resource.ansible_deploy (expand) -->
<g id="edge21" class="edge">
<title>[root] module.kosa&#45;sandbox.null_resource.ansible_seed_data (expand)&#45;&gt;[root] module.kosa&#45;sandbox.null_resource.ansible_deploy (expand)</title>
<path fill="none" stroke="black" d="M3795.21,-359.97C3863.52,-349.57 3950.9,-336.27 4021.01,-325.6"/>
<polygon fill="black" stroke="black" points="4021.87,-329.01 4031.23,-324.05 4020.82,-322.09 4021.87,-329.01"/>
</g>
<!-- [root] output.instance_ip_addr -->
<g id="node8" class="node">
<title>[root] output.instance_ip_addr</title>
<polygon fill="none" stroke="black" points="1994.27,-468 1812.27,-468 1812.27,-432 2000.27,-432 2000.27,-462 1994.27,-468"/>
<polyline fill="none" stroke="black" points="1994.27,-468 1994.27,-462 "/>
<polyline fill="none" stroke="black" points="2000.27,-462 1994.27,-462 "/>
<text text-anchor="middle" x="1906.27" y="-446.3" font-family="Times,serif" font-size="14.00">output.instance_ip_addr</text>
</g>
<!-- [root] module.kosa&#45;sandbox.output.instance_ip_addr (expand) -->
<g id="node14" class="node">
<title>[root] module.kosa&#45;sandbox.output.instance_ip_addr (expand)</title>
<ellipse fill="none" stroke="black" cx="1587.27" cy="-378" rx="297.05" ry="18"/>
<text text-anchor="middle" x="1587.27" y="-374.3" font-family="Times,serif" font-size="14.00">[root] module.kosa&#45;sandbox.output.instance_ip_addr (expand)</text>
</g>
<!-- [root] output.instance_ip_addr&#45;&gt;[root] module.kosa&#45;sandbox.output.instance_ip_addr (expand) -->
<g id="edge31" class="edge">
<title>[root] output.instance_ip_addr&#45;&gt;[root] module.kosa&#45;sandbox.output.instance_ip_addr (expand)</title>
<path fill="none" stroke="black" d="M1828.64,-431.97C1781.28,-421.57 1720.71,-408.28 1672.09,-397.61"/>
<polygon fill="black" stroke="black" points="1672.74,-394.17 1662.22,-395.45 1671.24,-401.01 1672.74,-394.17"/>
</g>
<!-- [root] output.instance_public_domain_name -->
<g id="node9" class="node">
<title>[root] output.instance_public_domain_name</title>
<polygon fill="none" stroke="black" points="2854.27,-468 2576.27,-468 2576.27,-432 2860.27,-432 2860.27,-462 2854.27,-468"/>
<polyline fill="none" stroke="black" points="2854.27,-468 2854.27,-462 "/>
<polyline fill="none" stroke="black" points="2860.27,-462 2854.27,-462 "/>
<text text-anchor="middle" x="2718.27" y="-446.3" font-family="Times,serif" font-size="14.00">output.instance_public_domain_name</text>
</g>
<!-- [root] module.kosa&#45;sandbox.output.instance_public_domain_name (expand) -->
<g id="node15" class="node">
<title>[root] module.kosa&#45;sandbox.output.instance_public_domain_name (expand)</title>
<ellipse fill="none" stroke="black" cx="2938.27" cy="-378" rx="358.54" ry="18"/>
<text text-anchor="middle" x="2938.27" y="-374.3" font-family="Times,serif" font-size="14.00">[root] module.kosa&#45;sandbox.output.instance_public_domain_name (expand)</text>
</g>
<!-- [root] output.instance_public_domain_name&#45;&gt;[root] module.kosa&#45;sandbox.output.instance_public_domain_name (expand) -->
<g id="edge32" class="edge">
<title>[root] output.instance_public_domain_name&#45;&gt;[root] module.kosa&#45;sandbox.output.instance_public_domain_name (expand)</title>
<path fill="none" stroke="black" d="M2771.81,-431.97C2803.05,-422.03 2842.62,-409.44 2875.34,-399.02"/>
<polygon fill="black" stroke="black" points="2876.79,-402.24 2885.26,-395.87 2874.67,-395.57 2876.79,-402.24"/>
</g>
<!-- [root] output.instance_public_ip_addr -->
<g id="node10" class="node">
<title>[root] output.instance_public_ip_addr</title>
<polygon fill="none" stroke="black" points="2504.77,-468 2271.77,-468 2271.77,-432 2510.77,-432 2510.77,-462 2504.77,-468"/>
<polyline fill="none" stroke="black" points="2504.77,-468 2504.77,-462 "/>
<polyline fill="none" stroke="black" points="2510.77,-462 2504.77,-462 "/>
<text text-anchor="middle" x="2391.27" y="-446.3" font-family="Times,serif" font-size="14.00">output.instance_public_ip_addr</text>
</g>
<!-- [root] module.kosa&#45;sandbox.output.instance_public_ip_addr (expand) -->
<g id="node16" class="node">
<title>[root] module.kosa&#45;sandbox.output.instance_public_ip_addr (expand)</title>
<ellipse fill="none" stroke="black" cx="2232.27" cy="-378" rx="329.54" ry="18"/>
<text text-anchor="middle" x="2232.27" y="-374.3" font-family="Times,serif" font-size="14.00">[root] module.kosa&#45;sandbox.output.instance_public_ip_addr (expand)</text>
</g>
<!-- [root] output.instance_public_ip_addr&#45;&gt;[root] module.kosa&#45;sandbox.output.instance_public_ip_addr (expand) -->
<g id="edge33" class="edge">
<title>[root] output.instance_public_ip_addr&#45;&gt;[root] module.kosa&#45;sandbox.output.instance_public_ip_addr (expand)</title>
<path fill="none" stroke="black" d="M2352.38,-431.88C2330.56,-422.27 2303.17,-410.21 2280.05,-400.03"/>
<polygon fill="black" stroke="black" points="2281.33,-396.77 2270.77,-395.95 2278.51,-403.18 2281.33,-396.77"/>
</g>
<!-- [root] module.kosa&#45;sandbox (close) -->
<g id="node13" class="node">
<title>[root] module.kosa&#45;sandbox (close)</title>
<ellipse fill="none" stroke="black" cx="3050.27" cy="-450" rx="172.47" ry="18"/>
<text text-anchor="middle" x="3050.27" y="-446.3" font-family="Times,serif" font-size="14.00">[root] module.kosa&#45;sandbox (close)</text>
</g>
<!-- [root] module.kosa&#45;sandbox (close)&#45;&gt;[root] module.kosa&#45;sandbox.aws_lightsail_instance_public_ports.kosa_server_ports (expand) -->
<g id="edge1" class="edge">
<title>[root] module.kosa&#45;sandbox (close)&#45;&gt;[root] module.kosa&#45;sandbox.aws_lightsail_instance_public_ports.kosa_server_ports (expand)</title>
<path fill="none" stroke="black" d="M3165.08,-436.52C3222.8,-428.08 3284.94,-414.96 3306.27,-396 3344.09,-362.39 3305.39,-322.64 3342.27,-288 3357.35,-273.84 3375.76,-263.37 3395.24,-255.64"/>
<polygon fill="black" stroke="black" points="3396.73,-258.83 3404.89,-252.07 3394.29,-252.26 3396.73,-258.83"/>
</g>
<!-- [root] module.kosa&#45;sandbox (close)&#45;&gt;[root] module.kosa&#45;sandbox.null_resource.ansible_seed_data (expand) -->
<g id="edge2" class="edge">
<title>[root] module.kosa&#45;sandbox (close)&#45;&gt;[root] module.kosa&#45;sandbox.null_resource.ansible_seed_data (expand)</title>
<path fill="none" stroke="black" d="M3163.81,-436.45C3262.84,-425.49 3407.72,-409.47 3519.34,-397.13"/>
<polygon fill="black" stroke="black" points="3519.79,-400.6 3529.35,-396.02 3519.02,-393.64 3519.79,-400.6"/>
</g>
<!-- [root] module.kosa&#45;sandbox (close)&#45;&gt;[root] module.kosa&#45;sandbox.output.instance_ip_addr (expand) -->
<g id="edge3" class="edge">
<title>[root] module.kosa&#45;sandbox (close)&#45;&gt;[root] module.kosa&#45;sandbox.output.instance_ip_addr (expand)</title>
<path fill="none" stroke="black" d="M2931.57,-436.88C2910.82,-435.04 2889.43,-433.32 2869.27,-432 2436.12,-403.69 2326.88,-416.04 1893.27,-396 1864.26,-394.66 1833.71,-393.12 1803.6,-391.52"/>
<polygon fill="black" stroke="black" points="1803.58,-388.02 1793.41,-390.98 1803.21,-395.01 1803.58,-388.02"/>
</g>
<!-- [root] module.kosa&#45;sandbox (close)&#45;&gt;[root] module.kosa&#45;sandbox.output.instance_public_domain_name (expand) -->
<g id="edge4" class="edge">
<title>[root] module.kosa&#45;sandbox (close)&#45;&gt;[root] module.kosa&#45;sandbox.output.instance_public_domain_name (expand)</title>
<path fill="none" stroke="black" d="M3023.16,-432.05C3008.41,-422.84 2989.98,-411.32 2974.07,-401.37"/>
<polygon fill="black" stroke="black" points="2975.86,-398.36 2965.52,-396.03 2972.15,-404.3 2975.86,-398.36"/>
</g>
<!-- [root] module.kosa&#45;sandbox (close)&#45;&gt;[root] module.kosa&#45;sandbox.output.instance_public_ip_addr (expand) -->
<g id="edge5" class="edge">
<title>[root] module.kosa&#45;sandbox (close)&#45;&gt;[root] module.kosa&#45;sandbox.output.instance_public_ip_addr (expand)</title>
<path fill="none" stroke="black" d="M2927.61,-437.3C2908.1,-435.49 2888.14,-433.67 2869.27,-432 2717.92,-418.6 2546.26,-404.37 2419.3,-394.03"/>
<polygon fill="black" stroke="black" points="2419.33,-390.53 2409.08,-393.2 2418.77,-397.5 2419.33,-390.53"/>
</g>
<!-- [root] module.kosa&#45;sandbox.output.instance_ip_addr (expand)&#45;&gt;[root] module.kosa&#45;sandbox.aws_lightsail_instance.kosa_server (expand) -->
<g id="edge22" class="edge">
<title>[root] module.kosa&#45;sandbox.output.instance_ip_addr (expand)&#45;&gt;[root] module.kosa&#45;sandbox.aws_lightsail_instance.kosa_server (expand)</title>
<path fill="none" stroke="black" d="M1637.88,-360.21C1755.11,-321.32 2044.85,-225.18 2171.45,-183.18"/>
<polygon fill="black" stroke="black" points="2172.61,-186.48 2181,-180.01 2170.41,-179.84 2172.61,-186.48"/>
</g>
<!-- [root] module.kosa&#45;sandbox.output.instance_public_domain_name (expand)&#45;&gt;[root] module.kosa&#45;sandbox.aws_route53_record.kosa_server_dns_record (expand) -->
<g id="edge23" class="edge">
<title>[root] module.kosa&#45;sandbox.output.instance_public_domain_name (expand)&#45;&gt;[root] module.kosa&#45;sandbox.aws_route53_record.kosa_server_dns_record (expand)</title>
<path fill="none" stroke="black" d="M2943.94,-359.87C2951.99,-335.56 2966.8,-290.82 2976.33,-262.01"/>
<polygon fill="black" stroke="black" points="2979.76,-262.78 2979.58,-252.19 2973.12,-260.58 2979.76,-262.78"/>
</g>
<!-- [root] module.kosa&#45;sandbox.output.instance_public_ip_addr (expand)&#45;&gt;[root] module.kosa&#45;sandbox.aws_lightsail_instance.kosa_server (expand) -->
<g id="edge24" class="edge">
<title>[root] module.kosa&#45;sandbox.output.instance_public_ip_addr (expand)&#45;&gt;[root] module.kosa&#45;sandbox.aws_lightsail_instance.kosa_server (expand)</title>
<path fill="none" stroke="black" d="M2232.27,-359.85C2232.27,-322.83 2232.27,-235.18 2232.27,-190.39"/>
<polygon fill="black" stroke="black" points="2235.77,-190.23 2232.27,-180.23 2228.77,-190.23 2235.77,-190.23"/>
</g>
<!-- [root] module.kosa&#45;sandbox.var.server_availability_zone (expand)&#45;&gt;[root] module.kosa&#45;sandbox (expand) -->
<g id="edge26" class="edge">
<title>[root] module.kosa&#45;sandbox.var.server_availability_zone (expand)&#45;&gt;[root] module.kosa&#45;sandbox (expand)</title>
<path fill="none" stroke="black" d="M531.74,-77.06C566.69,-75.27 602.47,-73.53 636.27,-72 1077.19,-52.1 1596.01,-33.92 1863.89,-24.93"/>
<polygon fill="black" stroke="black" points="1864.22,-28.42 1874.1,-24.58 1863.99,-21.42 1864.22,-28.42"/>
</g>
<!-- [root] module.kosa&#45;sandbox.var.server_blueprint_id (expand)&#45;&gt;[root] module.kosa&#45;sandbox (expand) -->
<g id="edge27" class="edge">
<title>[root] module.kosa&#45;sandbox.var.server_blueprint_id (expand)&#45;&gt;[root] module.kosa&#45;sandbox (expand)</title>
<path fill="none" stroke="black" d="M1133.27,-76.61C1347.36,-63.07 1686.19,-41.64 1884.7,-29.09"/>
<polygon fill="black" stroke="black" points="1885.16,-32.57 1894.92,-28.44 1884.72,-25.58 1885.16,-32.57"/>
</g>
<!-- [root] module.kosa&#45;sandbox.var.server_name (expand)&#45;&gt;[root] module.kosa&#45;sandbox (expand) -->
<g id="edge28" class="edge">
<title>[root] module.kosa&#45;sandbox.var.server_name (expand)&#45;&gt;[root] module.kosa&#45;sandbox (expand)</title>
<path fill="none" stroke="black" d="M1625.36,-73.81C1715.41,-62.03 1839.59,-45.78 1929.35,-34.04"/>
<polygon fill="black" stroke="black" points="1929.83,-37.5 1939.29,-32.74 1928.92,-30.56 1929.83,-37.5"/>
</g>
<!-- [root] module.kosa&#45;sandbox.var.server_size (expand)&#45;&gt;[root] module.kosa&#45;sandbox (expand) -->
<g id="edge29" class="edge">
<title>[root] module.kosa&#45;sandbox.var.server_size (expand)&#45;&gt;[root] module.kosa&#45;sandbox (expand)</title>
<path fill="none" stroke="black" d="M2044.27,-71.7C2044.27,-63.98 2044.27,-54.71 2044.27,-46.11"/>
<polygon fill="black" stroke="black" points="2047.77,-46.1 2044.27,-36.1 2040.77,-46.1 2047.77,-46.1"/>
</g>
<!-- [root] module.kosa&#45;sandbox.var.server_tags (expand)&#45;&gt;[root] module.kosa&#45;sandbox (expand) -->
<g id="edge30" class="edge">
<title>[root] module.kosa&#45;sandbox.var.server_tags (expand)&#45;&gt;[root] module.kosa&#45;sandbox (expand)</title>
<path fill="none" stroke="black" d="M2459.6,-73.85C2370.65,-62.11 2247.93,-45.9 2158.97,-34.15"/>
<polygon fill="black" stroke="black" points="2159.21,-30.65 2148.84,-32.81 2158.3,-37.59 2159.21,-30.65"/>
</g>
<!-- [root] module.kosa&#45;sandbox.var.ports (expand)&#45;&gt;[root] module.kosa&#45;sandbox (expand) -->
<g id="edge25" class="edge">
<title>[root] module.kosa&#45;sandbox.var.ports (expand)&#45;&gt;[root] module.kosa&#45;sandbox (expand)</title>
<path fill="none" stroke="black" d="M3563.18,-143.81C3559.63,-122.88 3550.27,-88.31 3526.27,-72 3473.83,-36.37 2624.46,-24.19 2235.77,-20.47"/>
<polygon fill="black" stroke="black" points="2235.57,-16.97 2225.54,-20.37 2235.5,-23.97 2235.57,-16.97"/>
</g>
<!-- [root] provider[&quot;registry.terraform.io/hashicorp/aws&quot;] (close) -->
<g id="node24" class="node">
<title>[root] provider[&quot;registry.terraform.io/hashicorp/aws&quot;] (close)</title>
<ellipse fill="none" stroke="black" cx="3643.27" cy="-306" rx="291.65" ry="18"/>
<text text-anchor="middle" x="3643.27" y="-302.3" font-family="Times,serif" font-size="14.00">[root] provider[&quot;registry.terraform.io/hashicorp/aws&quot;] (close)</text>
</g>
<!-- [root] provider[&quot;registry.terraform.io/hashicorp/aws&quot;] (close)&#45;&gt;[root] module.kosa&#45;sandbox.aws_lightsail_instance_public_ports.kosa_server_ports (expand) -->
<g id="edge34" class="edge">
<title>[root] provider[&quot;registry.terraform.io/hashicorp/aws&quot;] (close)&#45;&gt;[root] module.kosa&#45;sandbox.aws_lightsail_instance_public_ports.kosa_server_ports (expand)</title>
<path fill="none" stroke="black" d="M3618.82,-288.05C3605.77,-279.01 3589.52,-267.74 3575.35,-257.93"/>
<polygon fill="black" stroke="black" points="3577.06,-254.85 3566.85,-252.03 3573.07,-260.6 3577.06,-254.85"/>
</g>
<!-- [root] provider[&quot;registry.terraform.io/hashicorp/aws&quot;] (close)&#45;&gt;[root] module.kosa&#45;sandbox.aws_route53_record.kosa_server_dns_record (expand) -->
<g id="edge35" class="edge">
<title>[root] provider[&quot;registry.terraform.io/hashicorp/aws&quot;] (close)&#45;&gt;[root] module.kosa&#45;sandbox.aws_route53_record.kosa_server_dns_record (expand)</title>
<path fill="none" stroke="black" d="M3503.73,-290.15C3401.94,-279.33 3263.44,-264.59 3155.2,-253.08"/>
<polygon fill="black" stroke="black" points="3155.47,-249.59 3145.15,-252.01 3154.73,-256.55 3155.47,-249.59"/>
</g>
<!-- [root] provider[&quot;registry.terraform.io/hashicorp/null&quot;] (close) -->
<g id="node25" class="node">
<title>[root] provider[&quot;registry.terraform.io/hashicorp/null&quot;] (close)</title>
<ellipse fill="none" stroke="black" cx="3683.27" cy="-450" rx="291.65" ry="18"/>
<text text-anchor="middle" x="3683.27" y="-446.3" font-family="Times,serif" font-size="14.00">[root] provider[&quot;registry.terraform.io/hashicorp/null&quot;] (close)</text>
</g>
<!-- [root] provider[&quot;registry.terraform.io/hashicorp/null&quot;] (close)&#45;&gt;[root] module.kosa&#45;sandbox.null_resource.ansible_seed_data (expand) -->
<g id="edge36" class="edge">
<title>[root] provider[&quot;registry.terraform.io/hashicorp/null&quot;] (close)&#45;&gt;[root] module.kosa&#45;sandbox.null_resource.ansible_seed_data (expand)</title>
<path fill="none" stroke="black" d="M3683.27,-431.7C3683.27,-423.98 3683.27,-414.71 3683.27,-406.11"/>
<polygon fill="black" stroke="black" points="3686.77,-406.1 3683.27,-396.1 3679.77,-406.1 3686.77,-406.1"/>
</g>
<!-- [root] root -->
<g id="node26" class="node">
<title>[root] root</title>
<ellipse fill="none" stroke="black" cx="2884.27" cy="-522" rx="58.49" ry="18"/>
<text text-anchor="middle" x="2884.27" y="-518.3" font-family="Times,serif" font-size="14.00">[root] root</text>
</g>
<!-- [root] root&#45;&gt;[root] output.instance_ip_addr -->
<g id="edge38" class="edge">
<title>[root] root&#45;&gt;[root] output.instance_ip_addr</title>
<path fill="none" stroke="black" d="M2827.82,-516.96C2669.01,-505.59 2216.57,-473.21 2010.64,-458.47"/>
<polygon fill="black" stroke="black" points="2010.64,-454.96 2000.42,-457.74 2010.15,-461.94 2010.64,-454.96"/>
</g>
<!-- [root] root&#45;&gt;[root] output.instance_public_domain_name -->
<g id="edge39" class="edge">
<title>[root] root&#45;&gt;[root] output.instance_public_domain_name</title>
<path fill="none" stroke="black" d="M2851.08,-507C2827.3,-496.97 2794.86,-483.29 2767.99,-471.97"/>
<polygon fill="black" stroke="black" points="2769.32,-468.73 2758.74,-468.07 2766.6,-475.18 2769.32,-468.73"/>
</g>
<!-- [root] root&#45;&gt;[root] output.instance_public_ip_addr -->
<g id="edge40" class="edge">
<title>[root] root&#45;&gt;[root] output.instance_public_ip_addr</title>
<path fill="none" stroke="black" d="M2832.44,-513.64C2759.11,-503.23 2622.68,-483.86 2520.87,-469.4"/>
<polygon fill="black" stroke="black" points="2521.21,-465.91 2510.81,-467.97 2520.22,-472.84 2521.21,-465.91"/>
</g>
<!-- [root] root&#45;&gt;[root] module.kosa&#45;sandbox (close) -->
<g id="edge37" class="edge">
<title>[root] root&#45;&gt;[root] module.kosa&#45;sandbox (close)</title>
<path fill="none" stroke="black" d="M2917.47,-507C2941.59,-496.83 2974.61,-482.9 3001.7,-471.48"/>
<polygon fill="black" stroke="black" points="3003.15,-474.67 3011.01,-467.56 3000.43,-468.22 3003.15,-474.67"/>
</g>
<!-- [root] root&#45;&gt;[root] provider[&quot;registry.terraform.io/hashicorp/aws&quot;] (close) -->
<g id="edge41" class="edge">
<title>[root] root&#45;&gt;[root] provider[&quot;registry.terraform.io/hashicorp/aws&quot;] (close)</title>
<path fill="none" stroke="black" d="M2940.57,-517.09C3010.06,-511.2 3131.31,-497.44 3231.27,-468 3343.86,-434.84 3362.46,-401.45 3472.27,-360 3505.07,-347.62 3542.16,-335.86 3573.4,-326.58"/>
<polygon fill="black" stroke="black" points="3574.72,-329.84 3583.32,-323.65 3572.74,-323.12 3574.72,-329.84"/>
</g>
<!-- [root] root&#45;&gt;[root] provider[&quot;registry.terraform.io/hashicorp/null&quot;] (close) -->
<g id="edge42" class="edge">
<title>[root] root&#45;&gt;[root] provider[&quot;registry.terraform.io/hashicorp/null&quot;] (close)</title>
<path fill="none" stroke="black" d="M2939.82,-516.13C3056.61,-505.9 3331.71,-481.8 3512.52,-465.96"/>
<polygon fill="black" stroke="black" points="3513.02,-469.43 3522.68,-465.07 3512.41,-462.46 3513.02,-469.43"/>
</g>
</g>
</svg>
