<?xml version="1.0" encoding="UTF-8" standalone="no"?>
<!DOCTYPE svg PUBLIC "-//W3C//DTD SVG 1.1//EN"
 "http://www.w3.org/Graphics/SVG/1.1/DTD/svg11.dtd">
<!-- Generated by graphviz version 8.1.0 (20230707.0739)
 -->
<!-- Pages: 1 -->
<svg width="1025pt" height="332pt"
 viewBox="0.00 0.00 1025.12 332.00" xmlns="http://www.w3.org/2000/svg" xmlns:xlink="http://www.w3.org/1999/xlink">
<g id="graph0" class="graph" transform="scale(1 1) rotate(0) translate(4 328)">
<polygon fill="white" stroke="none" points="-4,4 -4,-328 1021.12,-328 1021.12,4 -4,4"/>
<!-- [root] aws_acm_certificate.download_pariyatti_org_certificate (expand) -->
<g id="node1" class="node">
<title>[root] aws_acm_certificate.download_pariyatti_org_certificate (expand)</title>
<polygon fill="none" stroke="black" points="322,-108 0,-108 0,-72 322,-72 322,-108"/>
<text text-anchor="middle" x="161" y="-84.95" font-family="Times,serif" font-size="14.00">aws_acm_certificate.download_pariyatti_org_certificate</text>
</g>
<!-- [root] provider[&quot;registry.terraform.io/hashicorp/aws&quot;] -->
<g id="node6" class="node">
<title>[root] provider[&quot;registry.terraform.io/hashicorp/aws&quot;]</title>
<polygon fill="none" stroke="black" points="477,-36 212.57,-18 477,0 741.43,-18 477,-36"/>
<text text-anchor="middle" x="477" y="-12.95" font-family="Times,serif" font-size="14.00">provider[&quot;registry.terraform.io/hashicorp/aws&quot;]</text>
</g>
<!-- [root] aws_acm_certificate.download_pariyatti_org_certificate (expand)&#45;&gt;[root] provider[&quot;registry.terraform.io/hashicorp/aws&quot;] -->
<g id="edge1" class="edge">
<title>[root] aws_acm_certificate.download_pariyatti_org_certificate (expand)&#45;&gt;[root] provider[&quot;registry.terraform.io/hashicorp/aws&quot;]</title>
<path fill="none" stroke="black" d="M239.93,-71.52C290.93,-60.22 356.76,-45.64 406.1,-34.71"/>
<polygon fill="black" stroke="black" points="406.67,-37.94 415.68,-32.36 405.16,-31.11 406.67,-37.94"/>
</g>
<!-- [root] aws_cloudfront_distribution.download_pariyatti_org_distribution (expand) -->
<g id="node2" class="node">
<title>[root] aws_cloudfront_distribution.download_pariyatti_org_distribution (expand)</title>
<polygon fill="none" stroke="black" points="629.75,-180 258.25,-180 258.25,-144 629.75,-144 629.75,-180"/>
<text text-anchor="middle" x="444" y="-156.95" font-family="Times,serif" font-size="14.00">aws_cloudfront_distribution.download_pariyatti_org_distribution</text>
</g>
<!-- [root] aws_cloudfront_distribution.download_pariyatti_org_distribution (expand)&#45;&gt;[root] aws_acm_certificate.download_pariyatti_org_certificate (expand) -->
<g id="edge2" class="edge">
<title>[root] aws_cloudfront_distribution.download_pariyatti_org_distribution (expand)&#45;&gt;[root] aws_acm_certificate.download_pariyatti_org_certificate (expand)</title>
<path fill="none" stroke="black" d="M373.32,-143.52C333.41,-133.64 283.37,-121.27 241.9,-111.01"/>
<polygon fill="black" stroke="black" points="242.82,-107.39 232.27,-108.38 241.14,-114.18 242.82,-107.39"/>
</g>
<!-- [root] aws_cloudfront_origin_access_identity.download_pariyatti_org_oai (expand) -->
<g id="node3" class="node">
<title>[root] aws_cloudfront_origin_access_identity.download_pariyatti_org_oai (expand)</title>
<polygon fill="none" stroke="black" points="1017.12,-108 632.88,-108 632.88,-72 1017.12,-72 1017.12,-108"/>
<text text-anchor="middle" x="825" y="-84.95" font-family="Times,serif" font-size="14.00">aws_cloudfront_origin_access_identity.download_pariyatti_org_oai</text>
</g>
<!-- [root] aws_cloudfront_distribution.download_pariyatti_org_distribution (expand)&#45;&gt;[root] aws_cloudfront_origin_access_identity.download_pariyatti_org_oai (expand) -->
<g id="edge3" class="edge">
<title>[root] aws_cloudfront_distribution.download_pariyatti_org_distribution (expand)&#45;&gt;[root] aws_cloudfront_origin_access_identity.download_pariyatti_org_oai (expand)</title>
<path fill="none" stroke="black" d="M539.16,-143.52C593.93,-133.45 662.86,-120.79 719.31,-110.42"/>
<polygon fill="black" stroke="black" points="719.86,-113.69 729.06,-108.44 718.6,-106.81 719.86,-113.69"/>
</g>
<!-- [root] aws_s3_bucket.download_pariyatti_org_bucket (expand) -->
<g id="node4" class="node">
<title>[root] aws_s3_bucket.download_pariyatti_org_bucket (expand)</title>
<polygon fill="none" stroke="black" points="614.38,-108 339.62,-108 339.62,-72 614.38,-72 614.38,-108"/>
<text text-anchor="middle" x="477" y="-84.95" font-family="Times,serif" font-size="14.00">aws_s3_bucket.download_pariyatti_org_bucket</text>
</g>
<!-- [root] aws_cloudfront_distribution.download_pariyatti_org_distribution (expand)&#45;&gt;[root] aws_s3_bucket.download_pariyatti_org_bucket (expand) -->
<g id="edge4" class="edge">
<title>[root] aws_cloudfront_distribution.download_pariyatti_org_distribution (expand)&#45;&gt;[root] aws_s3_bucket.download_pariyatti_org_bucket (expand)</title>
<path fill="none" stroke="black" d="M452.16,-143.7C455.83,-135.9 460.26,-126.51 464.35,-117.83"/>
<polygon fill="black" stroke="black" points="467.84,-119.64 468.94,-109.1 461.51,-116.66 467.84,-119.64"/>
</g>
<!-- [root] aws_cloudfront_origin_access_identity.download_pariyatti_org_oai (expand)&#45;&gt;[root] provider[&quot;registry.terraform.io/hashicorp/aws&quot;] -->
<g id="edge5" class="edge">
<title>[root] aws_cloudfront_origin_access_identity.download_pariyatti_org_oai (expand)&#45;&gt;[root] provider[&quot;registry.terraform.io/hashicorp/aws&quot;]</title>
<path fill="none" stroke="black" d="M738.08,-71.52C680.99,-60.03 607.04,-45.16 552.43,-34.17"/>
<polygon fill="black" stroke="black" points="553.27,-30.57 542.78,-32.03 551.89,-37.43 553.27,-30.57"/>
</g>
<!-- [root] aws_s3_bucket.download_pariyatti_org_bucket (expand)&#45;&gt;[root] provider[&quot;registry.terraform.io/hashicorp/aws&quot;] -->
<g id="edge6" class="edge">
<title>[root] aws_s3_bucket.download_pariyatti_org_bucket (expand)&#45;&gt;[root] provider[&quot;registry.terraform.io/hashicorp/aws&quot;]</title>
<path fill="none" stroke="black" d="M477,-71.7C477,-64.24 477,-55.32 477,-46.97"/>
<polygon fill="black" stroke="black" points="480.5,-47.1 477,-37.1 473.5,-47.1 480.5,-47.1"/>
</g>
<!-- [root] aws_s3_bucket_policy.download_pariyatti_org_bucket_policy (expand) -->
<g id="node5" class="node">
<title>[root] aws_s3_bucket_policy.download_pariyatti_org_bucket_policy (expand)</title>
<polygon fill="none" stroke="black" points="1002.5,-180 647.5,-180 647.5,-144 1002.5,-144 1002.5,-180"/>
<text text-anchor="middle" x="825" y="-156.95" font-family="Times,serif" font-size="14.00">aws_s3_bucket_policy.download_pariyatti_org_bucket_policy</text>
</g>
<!-- [root] aws_s3_bucket_policy.download_pariyatti_org_bucket_policy (expand)&#45;&gt;[root] aws_cloudfront_origin_access_identity.download_pariyatti_org_oai (expand) -->
<g id="edge7" class="edge">
<title>[root] aws_s3_bucket_policy.download_pariyatti_org_bucket_policy (expand)&#45;&gt;[root] aws_cloudfront_origin_access_identity.download_pariyatti_org_oai (expand)</title>
<path fill="none" stroke="black" d="M825,-143.7C825,-136.24 825,-127.32 825,-118.97"/>
<polygon fill="black" stroke="black" points="828.5,-119.1 825,-109.1 821.5,-119.1 828.5,-119.1"/>
</g>
<!-- [root] aws_s3_bucket_policy.download_pariyatti_org_bucket_policy (expand)&#45;&gt;[root] aws_s3_bucket.download_pariyatti_org_bucket (expand) -->
<g id="edge8" class="edge">
<title>[root] aws_s3_bucket_policy.download_pariyatti_org_bucket_policy (expand)&#45;&gt;[root] aws_s3_bucket.download_pariyatti_org_bucket (expand)</title>
<path fill="none" stroke="black" d="M738.08,-143.52C688.27,-133.5 625.62,-120.89 574.18,-110.55"/>
<polygon fill="black" stroke="black" points="575.21,-106.98 564.71,-108.44 573.83,-113.85 575.21,-106.98"/>
</g>
<!-- [root] provider[&quot;registry.terraform.io/hashicorp/aws&quot;] (close) -->
<g id="node7" class="node">
<title>[root] provider[&quot;registry.terraform.io/hashicorp/aws&quot;] (close)</title>
<ellipse fill="none" stroke="black" cx="634" cy="-234" rx="238.16" ry="18"/>
<text text-anchor="middle" x="634" y="-228.95" font-family="Times,serif" font-size="14.00">[root] provider[&quot;registry.terraform.io/hashicorp/aws&quot;] (close)</text>
</g>
<!-- [root] provider[&quot;registry.terraform.io/hashicorp/aws&quot;] (close)&#45;&gt;[root] aws_cloudfront_distribution.download_pariyatti_org_distribution (expand) -->
<g id="edge9" class="edge">
<title>[root] provider[&quot;registry.terraform.io/hashicorp/aws&quot;] (close)&#45;&gt;[root] aws_cloudfront_distribution.download_pariyatti_org_distribution (expand)</title>
<path fill="none" stroke="black" d="M587.52,-215.88C561.61,-206.33 529.11,-194.36 501.6,-184.22"/>
<polygon fill="black" stroke="black" points="502.91,-180.61 492.32,-180.43 500.49,-187.17 502.91,-180.61"/>
</g>
<!-- [root] provider[&quot;registry.terraform.io/hashicorp/aws&quot;] (close)&#45;&gt;[root] aws_s3_bucket_policy.download_pariyatti_org_bucket_policy (expand) -->
<g id="edge10" class="edge">
<title>[root] provider[&quot;registry.terraform.io/hashicorp/aws&quot;] (close)&#45;&gt;[root] aws_s3_bucket_policy.download_pariyatti_org_bucket_policy (expand)</title>
<path fill="none" stroke="black" d="M680.72,-215.88C706.89,-206.29 739.73,-194.25 767.47,-184.09"/>
<polygon fill="black" stroke="black" points="768.25,-187.16 776.43,-180.43 765.84,-180.59 768.25,-187.16"/>
</g>
<!-- [root] root -->
<g id="node8" class="node">
<title>[root] root</title>
<ellipse fill="none" stroke="black" cx="634" cy="-306" rx="49.3" ry="18"/>
<text text-anchor="middle" x="634" y="-300.95" font-family="Times,serif" font-size="14.00">[root] root</text>
</g>
<!-- [root] root&#45;&gt;[root] provider[&quot;registry.terraform.io/hashicorp/aws&quot;] (close) -->
<g id="edge11" class="edge">
<title>[root] root&#45;&gt;[root] provider[&quot;registry.terraform.io/hashicorp/aws&quot;] (close)</title>
<path fill="none" stroke="black" d="M634,-287.7C634,-280.24 634,-271.32 634,-262.97"/>
<polygon fill="black" stroke="black" points="637.5,-263.1 634,-253.1 630.5,-263.1 637.5,-263.1"/>
</g>
</g>
</svg>
