<?xml version="1.0" encoding="UTF-8" standalone="no"?>
<!DOCTYPE svg PUBLIC "-//W3C//DTD SVG 1.1//EN"
 "http://www.w3.org/Graphics/SVG/1.1/DTD/svg11.dtd">
<!-- Generated by graphviz version 8.0.3 (20230416.2022)
 -->
<!-- Pages: 1 -->
<svg width="3570pt" height="404pt"
 viewBox="0.00 0.00 3570.07 404.00" xmlns="http://www.w3.org/2000/svg" xmlns:xlink="http://www.w3.org/1999/xlink">
<g id="graph0" class="graph" transform="scale(1 1) rotate(0) translate(4 400)">
<polygon fill="white" stroke="none" points="-4,4 -4,-400 3566.07,-400 3566.07,4 -4,4"/>
<!-- [root] aws_cloudfront_distribution.download_pariyatti_org_distribution (expand) -->
<g id="node1" class="node">
<title>[root] aws_cloudfront_distribution.download_pariyatti_org_distribution (expand)</title>
<polygon fill="none" stroke="black" points="372,-252 0,-252 0,-216 372,-216 372,-252"/>
<text text-anchor="middle" x="186" y="-230.3" font-family="Times,serif" font-size="14.00">aws_cloudfront_distribution.download_pariyatti_org_distribution</text>
</g>
<!-- [root] aws_cloudfront_origin_access_identity.download_pariyatti_org_oai (expand) -->
<g id="node2" class="node">
<title>[root] aws_cloudfront_origin_access_identity.download_pariyatti_org_oai (expand)</title>
<polygon fill="none" stroke="black" points="412.5,-180 27.5,-180 27.5,-144 412.5,-144 412.5,-180"/>
<text text-anchor="middle" x="220" y="-158.3" font-family="Times,serif" font-size="14.00">aws_cloudfront_origin_access_identity.download_pariyatti_org_oai</text>
</g>
<!-- [root] aws_cloudfront_distribution.download_pariyatti_org_distribution (expand)&#45;&gt;[root] aws_cloudfront_origin_access_identity.download_pariyatti_org_oai (expand) -->
<g id="edge1" class="edge">
<title>[root] aws_cloudfront_distribution.download_pariyatti_org_distribution (expand)&#45;&gt;[root] aws_cloudfront_origin_access_identity.download_pariyatti_org_oai (expand)</title>
<path fill="none" stroke="black" d="M194.4,-215.7C198.19,-207.9 202.75,-198.51 206.97,-189.83"/>
<polygon fill="black" stroke="black" points="210.47,-191.63 211.69,-181.1 204.17,-188.57 210.47,-191.63"/>
</g>
<!-- [root] aws_s3_bucket.download_pariyatti_org_bucket (expand) -->
<g id="node3" class="node">
<title>[root] aws_s3_bucket.download_pariyatti_org_bucket (expand)</title>
<polygon fill="none" stroke="black" points="705.5,-180 430.5,-180 430.5,-144 705.5,-144 705.5,-180"/>
<text text-anchor="middle" x="568" y="-158.3" font-family="Times,serif" font-size="14.00">aws_s3_bucket.download_pariyatti_org_bucket</text>
</g>
<!-- [root] aws_cloudfront_distribution.download_pariyatti_org_distribution (expand)&#45;&gt;[root] aws_s3_bucket.download_pariyatti_org_bucket (expand) -->
<g id="edge2" class="edge">
<title>[root] aws_cloudfront_distribution.download_pariyatti_org_distribution (expand)&#45;&gt;[root] aws_s3_bucket.download_pariyatti_org_bucket (expand)</title>
<path fill="none" stroke="black" d="M281.41,-215.52C336.32,-205.45 405.44,-192.79 462.03,-182.42"/>
<polygon fill="black" stroke="black" points="462.61,-185.69 471.81,-180.44 461.35,-178.8 462.61,-185.69"/>
</g>
<!-- [root] provider[&quot;registry.terraform.io/hashicorp/aws&quot;] -->
<g id="node6" class="node">
<title>[root] provider[&quot;registry.terraform.io/hashicorp/aws&quot;]</title>
<polygon fill="none" stroke="black" points="568,-108 315.46,-90 568,-72 820.54,-90 568,-108"/>
<text text-anchor="middle" x="568" y="-86.3" font-family="Times,serif" font-size="14.00">provider[&quot;registry.terraform.io/hashicorp/aws&quot;]</text>
</g>
<!-- [root] aws_cloudfront_origin_access_identity.download_pariyatti_org_oai (expand)&#45;&gt;[root] provider[&quot;registry.terraform.io/hashicorp/aws&quot;] -->
<g id="edge3" class="edge">
<title>[root] aws_cloudfront_origin_access_identity.download_pariyatti_org_oai (expand)&#45;&gt;[root] provider[&quot;registry.terraform.io/hashicorp/aws&quot;]</title>
<path fill="none" stroke="black" d="M306.92,-143.52C364.2,-131.99 438.45,-117.06 493.11,-106.06"/>
<polygon fill="black" stroke="black" points="493.66,-109.32 502.77,-103.92 492.28,-102.46 493.66,-109.32"/>
</g>
<!-- [root] aws_s3_bucket.download_pariyatti_org_bucket (expand)&#45;&gt;[root] provider[&quot;registry.terraform.io/hashicorp/aws&quot;] -->
<g id="edge4" class="edge">
<title>[root] aws_s3_bucket.download_pariyatti_org_bucket (expand)&#45;&gt;[root] provider[&quot;registry.terraform.io/hashicorp/aws&quot;]</title>
<path fill="none" stroke="black" d="M568,-143.7C568,-136.24 568,-127.32 568,-118.97"/>
<polygon fill="black" stroke="black" points="571.5,-119.1 568,-109.1 564.5,-119.1 571.5,-119.1"/>
</g>
<!-- [root] aws_s3_bucket_policy.download_pariyatti_org_bucket_policy (expand) -->
<g id="node4" class="node">
<title>[root] aws_s3_bucket_policy.download_pariyatti_org_bucket_policy (expand)</title>
<polygon fill="none" stroke="black" points="746,-252 390,-252 390,-216 746,-216 746,-252"/>
<text text-anchor="middle" x="568" y="-230.3" font-family="Times,serif" font-size="14.00">aws_s3_bucket_policy.download_pariyatti_org_bucket_policy</text>
</g>
<!-- [root] aws_s3_bucket_policy.download_pariyatti_org_bucket_policy (expand)&#45;&gt;[root] aws_cloudfront_origin_access_identity.download_pariyatti_org_oai (expand) -->
<g id="edge5" class="edge">
<title>[root] aws_s3_bucket_policy.download_pariyatti_org_bucket_policy (expand)&#45;&gt;[root] aws_cloudfront_origin_access_identity.download_pariyatti_org_oai (expand)</title>
<path fill="none" stroke="black" d="M481.08,-215.52C431.27,-205.5 368.62,-192.89 317.18,-182.55"/>
<polygon fill="black" stroke="black" points="318.21,-178.98 307.71,-180.44 316.83,-185.85 318.21,-178.98"/>
</g>
<!-- [root] aws_s3_bucket_policy.download_pariyatti_org_bucket_policy (expand)&#45;&gt;[root] aws_s3_bucket.download_pariyatti_org_bucket (expand) -->
<g id="edge6" class="edge">
<title>[root] aws_s3_bucket_policy.download_pariyatti_org_bucket_policy (expand)&#45;&gt;[root] aws_s3_bucket.download_pariyatti_org_bucket (expand)</title>
<path fill="none" stroke="black" d="M568,-215.7C568,-208.24 568,-199.32 568,-190.97"/>
<polygon fill="black" stroke="black" points="571.5,-191.1 568,-181.1 564.5,-191.1 571.5,-191.1"/>
</g>
<!-- [root] module.download_pariyatti_route53_domain.aws_route53_zone.this (expand) -->
<g id="node5" class="node">
<title>[root] module.download_pariyatti_route53_domain.aws_route53_zone.this (expand)</title>
<polygon fill="none" stroke="black" points="1928.5,-180 1537.5,-180 1537.5,-144 1928.5,-144 1928.5,-180"/>
<text text-anchor="middle" x="1733" y="-158.3" font-family="Times,serif" font-size="14.00">module.download_pariyatti_route53_domain.aws_route53_zone.this</text>
</g>
<!-- [root] module.download_pariyatti_route53_domain.aws_route53_zone.this (expand)&#45;&gt;[root] provider[&quot;registry.terraform.io/hashicorp/aws&quot;] -->
<g id="edge14" class="edge">
<title>[root] module.download_pariyatti_route53_domain.aws_route53_zone.this (expand)&#45;&gt;[root] provider[&quot;registry.terraform.io/hashicorp/aws&quot;]</title>
<path fill="none" stroke="black" d="M1537.02,-149.22C1303.76,-135.21 919.78,-112.14 712.12,-99.66"/>
<polygon fill="black" stroke="black" points="712.34,-96.11 702.15,-99 711.92,-103.09 712.34,-96.11"/>
</g>
<!-- [root] module.download_pariyatti_route53_domain.var.create (expand) -->
<g id="node12" class="node">
<title>[root] module.download_pariyatti_route53_domain.var.create (expand)</title>
<ellipse fill="none" stroke="black" cx="1195" cy="-90" rx="263.45" ry="18"/>
<text text-anchor="middle" x="1195" y="-86.3" font-family="Times,serif" font-size="14.00">[root] module.download_pariyatti_route53_domain.var.create (expand)</text>
</g>
<!-- [root] module.download_pariyatti_route53_domain.aws_route53_zone.this (expand)&#45;&gt;[root] module.download_pariyatti_route53_domain.var.create (expand) -->
<g id="edge11" class="edge">
<title>[root] module.download_pariyatti_route53_domain.aws_route53_zone.this (expand)&#45;&gt;[root] module.download_pariyatti_route53_domain.var.create (expand)</title>
<path fill="none" stroke="black" d="M1598.63,-143.52C1514.84,-132.62 1407.58,-118.66 1324.69,-107.87"/>
<polygon fill="black" stroke="black" points="1325.31,-104.29 1314.94,-106.48 1324.4,-111.24 1325.31,-104.29"/>
</g>
<!-- [root] module.download_pariyatti_route53_domain.var.tags (expand) -->
<g id="node13" class="node">
<title>[root] module.download_pariyatti_route53_domain.var.tags (expand)</title>
<ellipse fill="none" stroke="black" cx="1733" cy="-90" rx="256.95" ry="18"/>
<text text-anchor="middle" x="1733" y="-86.3" font-family="Times,serif" font-size="14.00">[root] module.download_pariyatti_route53_domain.var.tags (expand)</text>
</g>
<!-- [root] module.download_pariyatti_route53_domain.aws_route53_zone.this (expand)&#45;&gt;[root] module.download_pariyatti_route53_domain.var.tags (expand) -->
<g id="edge12" class="edge">
<title>[root] module.download_pariyatti_route53_domain.aws_route53_zone.this (expand)&#45;&gt;[root] module.download_pariyatti_route53_domain.var.tags (expand)</title>
<path fill="none" stroke="black" d="M1733,-143.7C1733,-136.24 1733,-127.32 1733,-118.97"/>
<polygon fill="black" stroke="black" points="1736.5,-119.1 1733,-109.1 1729.5,-119.1 1736.5,-119.1"/>
</g>
<!-- [root] module.download_pariyatti_route53_domain.var.zones (expand) -->
<g id="node14" class="node">
<title>[root] module.download_pariyatti_route53_domain.var.zones (expand)</title>
<ellipse fill="none" stroke="black" cx="2270" cy="-90" rx="262.65" ry="18"/>
<text text-anchor="middle" x="2270" y="-86.3" font-family="Times,serif" font-size="14.00">[root] module.download_pariyatti_route53_domain.var.zones (expand)</text>
</g>
<!-- [root] module.download_pariyatti_route53_domain.aws_route53_zone.this (expand)&#45;&gt;[root] module.download_pariyatti_route53_domain.var.zones (expand) -->
<g id="edge13" class="edge">
<title>[root] module.download_pariyatti_route53_domain.aws_route53_zone.this (expand)&#45;&gt;[root] module.download_pariyatti_route53_domain.var.zones (expand)</title>
<path fill="none" stroke="black" d="M1867.12,-143.52C1950.75,-132.62 2057.81,-118.66 2140.55,-107.87"/>
<polygon fill="black" stroke="black" points="2140.82,-111.24 2150.28,-106.48 2139.91,-104.3 2140.82,-111.24"/>
</g>
<!-- [root] module.download_pariyatti_route53_domain (close) -->
<g id="node7" class="node">
<title>[root] module.download_pariyatti_route53_domain (close)</title>
<ellipse fill="none" stroke="black" cx="1826" cy="-306" rx="219.86" ry="18"/>
<text text-anchor="middle" x="1826" y="-302.3" font-family="Times,serif" font-size="14.00">[root] module.download_pariyatti_route53_domain (close)</text>
</g>
<!-- [root] module.download_pariyatti_route53_domain.output.route53_zone_name (expand) -->
<g id="node8" class="node">
<title>[root] module.download_pariyatti_route53_domain.output.route53_zone_name (expand)</title>
<ellipse fill="none" stroke="black" cx="1128" cy="-234" rx="325.74" ry="18"/>
<text text-anchor="middle" x="1128" y="-230.3" font-family="Times,serif" font-size="14.00">[root] module.download_pariyatti_route53_domain.output.route53_zone_name (expand)</text>
</g>
<!-- [root] module.download_pariyatti_route53_domain (close)&#45;&gt;[root] module.download_pariyatti_route53_domain.output.route53_zone_name (expand) -->
<g id="edge7" class="edge">
<title>[root] module.download_pariyatti_route53_domain (close)&#45;&gt;[root] module.download_pariyatti_route53_domain.output.route53_zone_name (expand)</title>
<path fill="none" stroke="black" d="M1690.59,-291.42C1576.58,-279.99 1413.17,-263.6 1291.81,-251.43"/>
<polygon fill="black" stroke="black" points="1292.24,-247.85 1281.94,-250.34 1291.54,-254.82 1292.24,-247.85"/>
</g>
<!-- [root] module.download_pariyatti_route53_domain.output.route53_zone_name_servers (expand) -->
<g id="node9" class="node">
<title>[root] module.download_pariyatti_route53_domain.output.route53_zone_name_servers (expand)</title>
<ellipse fill="none" stroke="black" cx="1826" cy="-234" rx="354.74" ry="18"/>
<text text-anchor="middle" x="1826" y="-230.3" font-family="Times,serif" font-size="14.00">[root] module.download_pariyatti_route53_domain.output.route53_zone_name_servers (expand)</text>
</g>
<!-- [root] module.download_pariyatti_route53_domain (close)&#45;&gt;[root] module.download_pariyatti_route53_domain.output.route53_zone_name_servers (expand) -->
<g id="edge8" class="edge">
<title>[root] module.download_pariyatti_route53_domain (close)&#45;&gt;[root] module.download_pariyatti_route53_domain.output.route53_zone_name_servers (expand)</title>
<path fill="none" stroke="black" d="M1826,-287.7C1826,-280.24 1826,-271.32 1826,-262.97"/>
<polygon fill="black" stroke="black" points="1829.5,-263.1 1826,-253.1 1822.5,-263.1 1829.5,-263.1"/>
</g>
<!-- [root] module.download_pariyatti_route53_domain.output.route53_zone_zone_arn (expand) -->
<g id="node10" class="node">
<title>[root] module.download_pariyatti_route53_domain.output.route53_zone_zone_arn (expand)</title>
<ellipse fill="none" stroke="black" cx="2537" cy="-234" rx="338.74" ry="18"/>
<text text-anchor="middle" x="2537" y="-230.3" font-family="Times,serif" font-size="14.00">[root] module.download_pariyatti_route53_domain.output.route53_zone_zone_arn (expand)</text>
</g>
<!-- [root] module.download_pariyatti_route53_domain (close)&#45;&gt;[root] module.download_pariyatti_route53_domain.output.route53_zone_zone_arn (expand) -->
<g id="edge9" class="edge">
<title>[root] module.download_pariyatti_route53_domain (close)&#45;&gt;[root] module.download_pariyatti_route53_domain.output.route53_zone_zone_arn (expand)</title>
<path fill="none" stroke="black" d="M1962.67,-291.54C2078.78,-280.11 2245.88,-263.66 2369.92,-251.45"/>
<polygon fill="black" stroke="black" points="2370.05,-254.86 2379.66,-250.39 2369.36,-247.89 2370.05,-254.86"/>
</g>
<!-- [root] module.download_pariyatti_route53_domain.output.route53_zone_zone_id (expand) -->
<g id="node11" class="node">
<title>[root] module.download_pariyatti_route53_domain.output.route53_zone_zone_id (expand)</title>
<ellipse fill="none" stroke="black" cx="3228" cy="-234" rx="334.14" ry="18"/>
<text text-anchor="middle" x="3228" y="-230.3" font-family="Times,serif" font-size="14.00">[root] module.download_pariyatti_route53_domain.output.route53_zone_zone_id (expand)</text>
</g>
<!-- [root] module.download_pariyatti_route53_domain (close)&#45;&gt;[root] module.download_pariyatti_route53_domain.output.route53_zone_zone_id (expand) -->
<g id="edge10" class="edge">
<title>[root] module.download_pariyatti_route53_domain (close)&#45;&gt;[root] module.download_pariyatti_route53_domain.output.route53_zone_zone_id (expand)</title>
<path fill="none" stroke="black" d="M2009.65,-295.83C2257.63,-283.45 2700.45,-261.34 2978.44,-247.46"/>
<polygon fill="black" stroke="black" points="2978.27,-250.92 2988.08,-246.93 2977.92,-243.93 2978.27,-250.92"/>
</g>
<!-- [root] module.download_pariyatti_route53_domain.output.route53_zone_name (expand)&#45;&gt;[root] module.download_pariyatti_route53_domain.aws_route53_zone.this (expand) -->
<g id="edge15" class="edge">
<title>[root] module.download_pariyatti_route53_domain.output.route53_zone_name (expand)&#45;&gt;[root] module.download_pariyatti_route53_domain.aws_route53_zone.this (expand)</title>
<path fill="none" stroke="black" d="M1264.53,-217.2C1355.48,-206.68 1475.42,-192.8 1571.17,-181.72"/>
<polygon fill="black" stroke="black" points="1571.3,-185.12 1580.84,-180.49 1570.5,-178.16 1571.3,-185.12"/>
</g>
<!-- [root] module.download_pariyatti_route53_domain.output.route53_zone_name_servers (expand)&#45;&gt;[root] module.download_pariyatti_route53_domain.aws_route53_zone.this (expand) -->
<g id="edge16" class="edge">
<title>[root] module.download_pariyatti_route53_domain.output.route53_zone_name_servers (expand)&#45;&gt;[root] module.download_pariyatti_route53_domain.aws_route53_zone.this (expand)</title>
<path fill="none" stroke="black" d="M1803.01,-215.7C1791.39,-206.95 1777.1,-196.19 1764.47,-186.69"/>
<polygon fill="black" stroke="black" points="1767.14,-183.56 1757.05,-180.35 1762.93,-189.16 1767.14,-183.56"/>
</g>
<!-- [root] module.download_pariyatti_route53_domain.output.route53_zone_zone_arn (expand)&#45;&gt;[root] module.download_pariyatti_route53_domain.aws_route53_zone.this (expand) -->
<g id="edge17" class="edge">
<title>[root] module.download_pariyatti_route53_domain.output.route53_zone_zone_arn (expand)&#45;&gt;[root] module.download_pariyatti_route53_domain.aws_route53_zone.this (expand)</title>
<path fill="none" stroke="black" d="M2365.51,-218.07C2240.9,-207.22 2071.67,-192.49 1939.61,-180.99"/>
<polygon fill="black" stroke="black" points="1940.23,-177.44 1929.97,-180.06 1939.63,-184.42 1940.23,-177.44"/>
</g>
<!-- [root] module.download_pariyatti_route53_domain.output.route53_zone_zone_id (expand)&#45;&gt;[root] module.download_pariyatti_route53_domain.aws_route53_zone.this (expand) -->
<g id="edge18" class="edge">
<title>[root] module.download_pariyatti_route53_domain.output.route53_zone_zone_id (expand)&#45;&gt;[root] module.download_pariyatti_route53_domain.aws_route53_zone.this (expand)</title>
<path fill="none" stroke="black" d="M2989.51,-221.07C2954.47,-219.35 2918.8,-217.61 2885,-216 2554.4,-200.2 2170.39,-182.71 1939.81,-172.29"/>
<polygon fill="black" stroke="black" points="1940.09,-168.76 1929.95,-171.8 1939.78,-175.75 1940.09,-168.76"/>
</g>
<!-- [root] module.download_pariyatti_route53_domain (expand) -->
<g id="node15" class="node">
<title>[root] module.download_pariyatti_route53_domain (expand)</title>
<ellipse fill="none" stroke="black" cx="1733" cy="-18" rx="226.66" ry="18"/>
<text text-anchor="middle" x="1733" y="-14.3" font-family="Times,serif" font-size="14.00">[root] module.download_pariyatti_route53_domain (expand)</text>
</g>
<!-- [root] module.download_pariyatti_route53_domain.var.create (expand)&#45;&gt;[root] module.download_pariyatti_route53_domain (expand) -->
<g id="edge19" class="edge">
<title>[root] module.download_pariyatti_route53_domain.var.create (expand)&#45;&gt;[root] module.download_pariyatti_route53_domain (expand)</title>
<path fill="none" stroke="black" d="M1314.07,-73.51C1401.21,-62.17 1519.2,-46.82 1607.75,-35.3"/>
<polygon fill="black" stroke="black" points="1607.94,-38.67 1617.4,-33.91 1607.04,-31.73 1607.94,-38.67"/>
</g>
<!-- [root] module.download_pariyatti_route53_domain.var.tags (expand)&#45;&gt;[root] module.download_pariyatti_route53_domain (expand) -->
<g id="edge20" class="edge">
<title>[root] module.download_pariyatti_route53_domain.var.tags (expand)&#45;&gt;[root] module.download_pariyatti_route53_domain (expand)</title>
<path fill="none" stroke="black" d="M1733,-71.7C1733,-64.24 1733,-55.32 1733,-46.97"/>
<polygon fill="black" stroke="black" points="1736.5,-47.1 1733,-37.1 1729.5,-47.1 1736.5,-47.1"/>
</g>
<!-- [root] module.download_pariyatti_route53_domain.var.zones (expand)&#45;&gt;[root] module.download_pariyatti_route53_domain (expand) -->
<g id="edge21" class="edge">
<title>[root] module.download_pariyatti_route53_domain.var.zones (expand)&#45;&gt;[root] module.download_pariyatti_route53_domain (expand)</title>
<path fill="none" stroke="black" d="M2151.16,-73.51C2064.26,-62.18 1946.65,-46.85 1858.28,-35.33"/>
<polygon fill="black" stroke="black" points="1858.75,-31.73 1848.38,-33.91 1857.85,-38.67 1858.75,-31.73"/>
</g>
<!-- [root] provider[&quot;registry.terraform.io/hashicorp/aws&quot;] (close) -->
<g id="node16" class="node">
<title>[root] provider[&quot;registry.terraform.io/hashicorp/aws&quot;] (close)</title>
<ellipse fill="none" stroke="black" cx="671" cy="-306" rx="227.46" ry="18"/>
<text text-anchor="middle" x="671" y="-302.3" font-family="Times,serif" font-size="14.00">[root] provider[&quot;registry.terraform.io/hashicorp/aws&quot;] (close)</text>
</g>
<!-- [root] provider[&quot;registry.terraform.io/hashicorp/aws&quot;] (close)&#45;&gt;[root] aws_cloudfront_distribution.download_pariyatti_org_distribution (expand) -->
<g id="edge22" class="edge">
<title>[root] provider[&quot;registry.terraform.io/hashicorp/aws&quot;] (close)&#45;&gt;[root] aws_cloudfront_distribution.download_pariyatti_org_distribution (expand)</title>
<path fill="none" stroke="black" d="M564.86,-289.68C492.18,-279.19 395.27,-265.2 317.66,-254"/>
<polygon fill="black" stroke="black" points="318.24,-250.41 307.84,-252.44 317.24,-257.33 318.24,-250.41"/>
</g>
<!-- [root] provider[&quot;registry.terraform.io/hashicorp/aws&quot;] (close)&#45;&gt;[root] aws_s3_bucket_policy.download_pariyatti_org_bucket_policy (expand) -->
<g id="edge23" class="edge">
<title>[root] provider[&quot;registry.terraform.io/hashicorp/aws&quot;] (close)&#45;&gt;[root] aws_s3_bucket_policy.download_pariyatti_org_bucket_policy (expand)</title>
<path fill="none" stroke="black" d="M645.54,-287.7C632.54,-278.86 616.54,-267.99 602.45,-258.41"/>
<polygon fill="black" stroke="black" points="604.76,-255.07 594.52,-252.35 600.83,-260.86 604.76,-255.07"/>
</g>
<!-- [root] provider[&quot;registry.terraform.io/hashicorp/aws&quot;] (close)&#45;&gt;[root] module.download_pariyatti_route53_domain.aws_route53_zone.this (expand) -->
<g id="edge24" class="edge">
<title>[root] provider[&quot;registry.terraform.io/hashicorp/aws&quot;] (close)&#45;&gt;[root] module.download_pariyatti_route53_domain.aws_route53_zone.this (expand)</title>
<path fill="none" stroke="black" d="M701.5,-287.72C717.88,-277.96 738.12,-265.12 755,-252 773.37,-237.72 771.64,-225.22 793,-216 858.33,-187.81 1269.66,-173.45 1526.09,-167.15"/>
<polygon fill="black" stroke="black" points="1526.14,-170.62 1536.05,-166.88 1525.96,-163.62 1526.14,-170.62"/>
</g>
<!-- [root] root -->
<g id="node17" class="node">
<title>[root] root</title>
<ellipse fill="none" stroke="black" cx="1197" cy="-378" rx="47.39" ry="18"/>
<text text-anchor="middle" x="1197" y="-374.3" font-family="Times,serif" font-size="14.00">[root] root</text>
</g>
<!-- [root] root&#45;&gt;[root] module.download_pariyatti_route53_domain (close) -->
<g id="edge25" class="edge">
<title>[root] root&#45;&gt;[root] module.download_pariyatti_route53_domain (close)</title>
<path fill="none" stroke="black" d="M1242.24,-371.97C1334.27,-361.72 1546.58,-338.1 1688.17,-322.34"/>
<polygon fill="black" stroke="black" points="1688.54,-325.71 1698.09,-321.12 1687.76,-318.75 1688.54,-325.71"/>
</g>
<!-- [root] root&#45;&gt;[root] provider[&quot;registry.terraform.io/hashicorp/aws&quot;] (close) -->
<g id="edge26" class="edge">
<title>[root] root&#45;&gt;[root] provider[&quot;registry.terraform.io/hashicorp/aws&quot;] (close)</title>
<path fill="none" stroke="black" d="M1152.61,-371.09C1074.43,-360.69 909.6,-338.75 794.67,-323.46"/>
<polygon fill="black" stroke="black" points="795.43,-319.9 785.06,-322.05 794.51,-326.83 795.43,-319.9"/>
</g>
</g>
</svg>
