<?xml version="1.0" encoding="UTF-8" standalone="no"?>
<!DOCTYPE svg PUBLIC "-//W3C//DTD SVG 1.1//EN"
 "http://www.w3.org/Graphics/SVG/1.1/DTD/svg11.dtd">
<!-- Generated by graphviz version 3.0.0 (20220226.1711)
 -->
<!-- Pages: 1 -->
<svg width="1159pt" height="476pt"
 viewBox="0.00 0.00 1159.48 476.00" xmlns="http://www.w3.org/2000/svg" xmlns:xlink="http://www.w3.org/1999/xlink">
<g id="graph0" class="graph" transform="scale(1 1) rotate(0) translate(4 472)">
<polygon fill="white" stroke="transparent" points="-4,4 -4,-472 1155.48,-472 1155.48,4 -4,4"/>
<!-- [root] aws_lightsail_instance.kosa_sandbox (expand) -->
<g id="node1" class="node">
<title>[root] aws_lightsail_instance.kosa_sandbox (expand)</title>
<polygon fill="none" stroke="black" points="595.5,-108 376.5,-108 376.5,-72 595.5,-72 595.5,-108"/>
<text text-anchor="middle" x="486" y="-86.3" font-family="Times,serif" font-size="14.00">aws_lightsail_instance.kosa_sandbox</text>
</g>
<!-- [root] provider[&quot;registry.terraform.io/hashicorp/aws&quot;] -->
<g id="node11" class="node">
<title>[root] provider[&quot;registry.terraform.io/hashicorp/aws&quot;]</title>
<polygon fill="none" stroke="black" points="327,-36 74.46,-18 327,0 579.54,-18 327,-36"/>
<text text-anchor="middle" x="327" y="-14.3" font-family="Times,serif" font-size="14.00">provider[&quot;registry.terraform.io/hashicorp/aws&quot;]</text>
</g>
<!-- [root] aws_lightsail_instance.kosa_sandbox (expand)&#45;&gt;[root] provider[&quot;registry.terraform.io/hashicorp/aws&quot;] -->
<g id="edge1" class="edge">
<title>[root] aws_lightsail_instance.kosa_sandbox (expand)&#45;&gt;[root] provider[&quot;registry.terraform.io/hashicorp/aws&quot;]</title>
<path fill="none" stroke="black" d="M447.1,-71.88C423.65,-61.55 393.75,-48.38 369.65,-37.77"/>
<polygon fill="black" stroke="black" points="370.95,-34.52 360.38,-33.7 368.13,-40.93 370.95,-34.52"/>
</g>
<!-- [root] aws_lightsail_instance_public_ports.kosa_sandbox_https (expand) -->
<g id="node2" class="node">
<title>[root] aws_lightsail_instance_public_ports.kosa_sandbox_https (expand)</title>
<polygon fill="none" stroke="black" points="618,-180 292,-180 292,-144 618,-144 618,-180"/>
<text text-anchor="middle" x="455" y="-158.3" font-family="Times,serif" font-size="14.00">aws_lightsail_instance_public_ports.kosa_sandbox_https</text>
</g>
<!-- [root] aws_lightsail_instance_public_ports.kosa_sandbox_https (expand)&#45;&gt;[root] aws_lightsail_instance.kosa_sandbox (expand) -->
<g id="edge2" class="edge">
<title>[root] aws_lightsail_instance_public_ports.kosa_sandbox_https (expand)&#45;&gt;[root] aws_lightsail_instance.kosa_sandbox (expand)</title>
<path fill="none" stroke="black" d="M462.66,-143.7C466.19,-135.73 470.46,-126.1 474.37,-117.26"/>
<polygon fill="black" stroke="black" points="477.58,-118.67 478.43,-108.1 471.18,-115.83 477.58,-118.67"/>
</g>
<!-- [root] aws_route53_record.kosa_sandbox_dns_record (expand) -->
<g id="node3" class="node">
<title>[root] aws_route53_record.kosa_sandbox_dns_record (expand)</title>
<polygon fill="none" stroke="black" points="274,-180 0,-180 0,-144 274,-144 274,-180"/>
<text text-anchor="middle" x="137" y="-158.3" font-family="Times,serif" font-size="14.00">aws_route53_record.kosa_sandbox_dns_record</text>
</g>
<!-- [root] aws_route53_record.kosa_sandbox_dns_record (expand)&#45;&gt;[root] aws_lightsail_instance.kosa_sandbox (expand) -->
<g id="edge3" class="edge">
<title>[root] aws_route53_record.kosa_sandbox_dns_record (expand)&#45;&gt;[root] aws_lightsail_instance.kosa_sandbox (expand)</title>
<path fill="none" stroke="black" d="M221.93,-143.97C273.01,-133.72 338.15,-120.66 390.95,-110.07"/>
<polygon fill="black" stroke="black" points="391.88,-113.45 400.99,-108.05 390.5,-106.59 391.88,-113.45"/>
</g>
<!-- [root] data.aws_route53_zone.app_domain (expand) -->
<g id="node4" class="node">
<title>[root] data.aws_route53_zone.app_domain (expand)</title>
<polygon fill="none" stroke="black" points="317.5,-108 102.5,-108 102.5,-72 317.5,-72 317.5,-108"/>
<text text-anchor="middle" x="210" y="-86.3" font-family="Times,serif" font-size="14.00">data.aws_route53_zone.app_domain</text>
</g>
<!-- [root] aws_route53_record.kosa_sandbox_dns_record (expand)&#45;&gt;[root] data.aws_route53_zone.app_domain (expand) -->
<g id="edge4" class="edge">
<title>[root] aws_route53_record.kosa_sandbox_dns_record (expand)&#45;&gt;[root] data.aws_route53_zone.app_domain (expand)</title>
<path fill="none" stroke="black" d="M155.04,-143.7C164.06,-135.05 175.12,-124.45 184.94,-115.03"/>
<polygon fill="black" stroke="black" points="187.37,-117.55 192.16,-108.1 182.52,-112.5 187.37,-117.55"/>
</g>
<!-- [root] data.aws_route53_zone.app_domain (expand)&#45;&gt;[root] provider[&quot;registry.terraform.io/hashicorp/aws&quot;] -->
<g id="edge5" class="edge">
<title>[root] data.aws_route53_zone.app_domain (expand)&#45;&gt;[root] provider[&quot;registry.terraform.io/hashicorp/aws&quot;]</title>
<path fill="none" stroke="black" d="M238.62,-71.88C254.98,-62.09 275.61,-49.75 292.81,-39.45"/>
<polygon fill="black" stroke="black" points="294.68,-42.42 301.46,-34.28 291.08,-36.41 294.68,-42.42"/>
</g>
<!-- [root] null_resource.ansible_config (expand) -->
<g id="node5" class="node">
<title>[root] null_resource.ansible_config (expand)</title>
<polygon fill="none" stroke="black" points="979.5,-180 806.5,-180 806.5,-144 979.5,-144 979.5,-180"/>
<text text-anchor="middle" x="893" y="-158.3" font-family="Times,serif" font-size="14.00">null_resource.ansible_config</text>
</g>
<!-- [root] null_resource.ansible_config (expand)&#45;&gt;[root] aws_lightsail_instance.kosa_sandbox (expand) -->
<g id="edge6" class="edge">
<title>[root] null_resource.ansible_config (expand)&#45;&gt;[root] aws_lightsail_instance.kosa_sandbox (expand)</title>
<path fill="none" stroke="black" d="M806.19,-146.07C744.57,-135.47 661.38,-121.16 595.25,-109.79"/>
<polygon fill="black" stroke="black" points="595.65,-106.31 585.2,-108.06 594.46,-113.21 595.65,-106.31"/>
</g>
<!-- [root] provider[&quot;registry.terraform.io/hashicorp/null&quot;] -->
<g id="node12" class="node">
<title>[root] provider[&quot;registry.terraform.io/hashicorp/null&quot;]</title>
<polygon fill="none" stroke="black" points="893,-108 640.46,-90 893,-72 1145.54,-90 893,-108"/>
<text text-anchor="middle" x="893" y="-86.3" font-family="Times,serif" font-size="14.00">provider[&quot;registry.terraform.io/hashicorp/null&quot;]</text>
</g>
<!-- [root] null_resource.ansible_config (expand)&#45;&gt;[root] provider[&quot;registry.terraform.io/hashicorp/null&quot;] -->
<g id="edge7" class="edge">
<title>[root] null_resource.ansible_config (expand)&#45;&gt;[root] provider[&quot;registry.terraform.io/hashicorp/null&quot;]</title>
<path fill="none" stroke="black" d="M893,-143.7C893,-135.98 893,-126.71 893,-118.11"/>
<polygon fill="black" stroke="black" points="896.5,-118.1 893,-108.1 889.5,-118.1 896.5,-118.1"/>
</g>
<!-- [root] null_resource.ansible_deploy (expand) -->
<g id="node6" class="node">
<title>[root] null_resource.ansible_deploy (expand)</title>
<polygon fill="none" stroke="black" points="997,-252 821,-252 821,-216 997,-216 997,-252"/>
<text text-anchor="middle" x="909" y="-230.3" font-family="Times,serif" font-size="14.00">null_resource.ansible_deploy</text>
</g>
<!-- [root] null_resource.ansible_deploy (expand)&#45;&gt;[root] null_resource.ansible_config (expand) -->
<g id="edge8" class="edge">
<title>[root] null_resource.ansible_deploy (expand)&#45;&gt;[root] null_resource.ansible_config (expand)</title>
<path fill="none" stroke="black" d="M905.04,-215.7C903.28,-207.98 901.16,-198.71 899.2,-190.11"/>
<polygon fill="black" stroke="black" points="902.55,-189.07 896.91,-180.1 895.73,-190.63 902.55,-189.07"/>
</g>
<!-- [root] null_resource.ansible_seed_data (expand) -->
<g id="node7" class="node">
<title>[root] null_resource.ansible_seed_data (expand)</title>
<polygon fill="none" stroke="black" points="1020,-324 828,-324 828,-288 1020,-288 1020,-324"/>
<text text-anchor="middle" x="924" y="-302.3" font-family="Times,serif" font-size="14.00">null_resource.ansible_seed_data</text>
</g>
<!-- [root] null_resource.ansible_seed_data (expand)&#45;&gt;[root] null_resource.ansible_deploy (expand) -->
<g id="edge9" class="edge">
<title>[root] null_resource.ansible_seed_data (expand)&#45;&gt;[root] null_resource.ansible_deploy (expand)</title>
<path fill="none" stroke="black" d="M920.29,-287.7C918.64,-279.98 916.65,-270.71 914.81,-262.11"/>
<polygon fill="black" stroke="black" points="918.18,-261.15 912.67,-252.1 911.34,-262.62 918.18,-261.15"/>
</g>
<!-- [root] output.instance_ip_addr -->
<g id="node8" class="node">
<title>[root] output.instance_ip_addr</title>
<polygon fill="none" stroke="black" points="803.5,-324 662.5,-324 662.5,-288 809.5,-288 809.5,-318 803.5,-324"/>
<polyline fill="none" stroke="black" points="803.5,-324 803.5,-318 "/>
<polyline fill="none" stroke="black" points="809.5,-318 803.5,-318 "/>
<text text-anchor="middle" x="736" y="-302.3" font-family="Times,serif" font-size="14.00">output.instance_ip_addr</text>
</g>
<!-- [root] output.instance_ip_addr&#45;&gt;[root] aws_lightsail_instance.kosa_sandbox (expand) -->
<g id="edge10" class="edge">
<title>[root] output.instance_ip_addr&#45;&gt;[root] aws_lightsail_instance.kosa_sandbox (expand)</title>
<path fill="none" stroke="black" d="M732.71,-287.89C725.52,-255.08 705.25,-183.11 660,-144 643.32,-129.59 622.8,-119.09 601.77,-111.45"/>
<polygon fill="black" stroke="black" points="602.68,-108.06 592.09,-108.14 600.42,-114.69 602.68,-108.06"/>
</g>
<!-- [root] output.instance_public_domain_name -->
<g id="node9" class="node">
<title>[root] output.instance_public_domain_name</title>
<polygon fill="none" stroke="black" points="312,-396 94,-396 94,-360 318,-360 318,-390 312,-396"/>
<polyline fill="none" stroke="black" points="312,-396 312,-390 "/>
<polyline fill="none" stroke="black" points="318,-390 312,-390 "/>
<text text-anchor="middle" x="206" y="-374.3" font-family="Times,serif" font-size="14.00">output.instance_public_domain_name</text>
</g>
<!-- [root] output.instance_public_domain_name&#45;&gt;[root] aws_route53_record.kosa_sandbox_dns_record (expand) -->
<g id="edge11" class="edge">
<title>[root] output.instance_public_domain_name&#45;&gt;[root] aws_route53_record.kosa_sandbox_dns_record (expand)</title>
<path fill="none" stroke="black" d="M197.86,-359.98C186.79,-336.26 167,-291.71 155,-252 148.85,-231.66 144.19,-208.07 141.15,-190.28"/>
<polygon fill="black" stroke="black" points="144.59,-189.6 139.51,-180.3 137.68,-190.73 144.59,-189.6"/>
</g>
<!-- [root] output.instance_public_ip_addr -->
<g id="node10" class="node">
<title>[root] output.instance_public_ip_addr</title>
<polygon fill="none" stroke="black" points="635,-396 453,-396 453,-360 641,-360 641,-390 635,-396"/>
<polyline fill="none" stroke="black" points="635,-396 635,-390 "/>
<polyline fill="none" stroke="black" points="641,-390 635,-390 "/>
<text text-anchor="middle" x="547" y="-374.3" font-family="Times,serif" font-size="14.00">output.instance_public_ip_addr</text>
</g>
<!-- [root] output.instance_public_ip_addr&#45;&gt;[root] aws_lightsail_instance.kosa_sandbox (expand) -->
<g id="edge12" class="edge">
<title>[root] output.instance_public_ip_addr&#45;&gt;[root] aws_lightsail_instance.kosa_sandbox (expand)</title>
<path fill="none" stroke="black" d="M562.74,-359.75C597.94,-319.04 676.18,-215.03 627,-144 617.36,-130.07 603.56,-119.8 588.34,-112.22"/>
<polygon fill="black" stroke="black" points="589.78,-109.03 579.23,-108.07 586.87,-115.4 589.78,-109.03"/>
</g>
<!-- [root] provider[&quot;registry.terraform.io/hashicorp/aws&quot;] (close) -->
<g id="node13" class="node">
<title>[root] provider[&quot;registry.terraform.io/hashicorp/aws&quot;] (close)</title>
<ellipse fill="none" stroke="black" cx="391" cy="-234" rx="227.46" ry="18"/>
<text text-anchor="middle" x="391" y="-230.3" font-family="Times,serif" font-size="14.00">[root] provider[&quot;registry.terraform.io/hashicorp/aws&quot;] (close)</text>
</g>
<!-- [root] provider[&quot;registry.terraform.io/hashicorp/aws&quot;] (close)&#45;&gt;[root] aws_lightsail_instance_public_ports.kosa_sandbox_https (expand) -->
<g id="edge13" class="edge">
<title>[root] provider[&quot;registry.terraform.io/hashicorp/aws&quot;] (close)&#45;&gt;[root] aws_lightsail_instance_public_ports.kosa_sandbox_https (expand)</title>
<path fill="none" stroke="black" d="M406.82,-215.7C414.57,-207.22 424.04,-196.86 432.52,-187.58"/>
<polygon fill="black" stroke="black" points="435.2,-189.85 439.36,-180.1 430.03,-185.12 435.2,-189.85"/>
</g>
<!-- [root] provider[&quot;registry.terraform.io/hashicorp/aws&quot;] (close)&#45;&gt;[root] aws_route53_record.kosa_sandbox_dns_record (expand) -->
<g id="edge14" class="edge">
<title>[root] provider[&quot;registry.terraform.io/hashicorp/aws&quot;] (close)&#45;&gt;[root] aws_route53_record.kosa_sandbox_dns_record (expand)</title>
<path fill="none" stroke="black" d="M331.45,-216.59C294.68,-206.46 247.29,-193.39 208.5,-182.7"/>
<polygon fill="black" stroke="black" points="209.4,-179.32 198.83,-180.04 207.54,-186.07 209.4,-179.32"/>
</g>
<!-- [root] provider[&quot;registry.terraform.io/hashicorp/null&quot;] (close) -->
<g id="node14" class="node">
<title>[root] provider[&quot;registry.terraform.io/hashicorp/null&quot;] (close)</title>
<ellipse fill="none" stroke="black" cx="924" cy="-378" rx="227.46" ry="18"/>
<text text-anchor="middle" x="924" y="-374.3" font-family="Times,serif" font-size="14.00">[root] provider[&quot;registry.terraform.io/hashicorp/null&quot;] (close)</text>
</g>
<!-- [root] provider[&quot;registry.terraform.io/hashicorp/null&quot;] (close)&#45;&gt;[root] null_resource.ansible_seed_data (expand) -->
<g id="edge15" class="edge">
<title>[root] provider[&quot;registry.terraform.io/hashicorp/null&quot;] (close)&#45;&gt;[root] null_resource.ansible_seed_data (expand)</title>
<path fill="none" stroke="black" d="M924,-359.7C924,-351.98 924,-342.71 924,-334.11"/>
<polygon fill="black" stroke="black" points="927.5,-334.1 924,-324.1 920.5,-334.1 927.5,-334.1"/>
</g>
<!-- [root] root -->
<g id="node15" class="node">
<title>[root] root</title>
<ellipse fill="none" stroke="black" cx="547" cy="-450" rx="47.39" ry="18"/>
<text text-anchor="middle" x="547" y="-446.3" font-family="Times,serif" font-size="14.00">[root] root</text>
</g>
<!-- [root] root&#45;&gt;[root] output.instance_ip_addr -->
<g id="edge16" class="edge">
<title>[root] root&#45;&gt;[root] output.instance_ip_addr</title>
<path fill="none" stroke="black" d="M578.28,-436.15C599.53,-426.66 627.72,-412.55 650,-396 663.58,-385.91 692.98,-354.57 713.61,-331.93"/>
<polygon fill="black" stroke="black" points="716.37,-334.1 720.5,-324.34 711.19,-329.39 716.37,-334.1"/>
</g>
<!-- [root] root&#45;&gt;[root] output.instance_public_domain_name -->
<g id="edge17" class="edge">
<title>[root] root&#45;&gt;[root] output.instance_public_domain_name</title>
<path fill="none" stroke="black" d="M506.21,-440.63C455.32,-430.18 366.77,-412 298.98,-398.09"/>
<polygon fill="black" stroke="black" points="299.64,-394.65 289.14,-396.07 298.23,-401.51 299.64,-394.65"/>
</g>
<!-- [root] root&#45;&gt;[root] output.instance_public_ip_addr -->
<g id="edge18" class="edge">
<title>[root] root&#45;&gt;[root] output.instance_public_ip_addr</title>
<path fill="none" stroke="black" d="M547,-431.7C547,-423.98 547,-414.71 547,-406.11"/>
<polygon fill="black" stroke="black" points="550.5,-406.1 547,-396.1 543.5,-406.1 550.5,-406.1"/>
</g>
<!-- [root] root&#45;&gt;[root] provider[&quot;registry.terraform.io/hashicorp/aws&quot;] (close) -->
<g id="edge19" class="edge">
<title>[root] root&#45;&gt;[root] provider[&quot;registry.terraform.io/hashicorp/aws&quot;] (close)</title>
<path fill="none" stroke="black" d="M510.55,-438.14C488.49,-429.85 461.37,-416.34 444,-396 410.89,-357.23 398.32,-297.2 393.66,-262.44"/>
<polygon fill="black" stroke="black" points="397.08,-261.61 392.4,-252.1 390.13,-262.45 397.08,-261.61"/>
</g>
<!-- [root] root&#45;&gt;[root] provider[&quot;registry.terraform.io/hashicorp/null&quot;] (close) -->
<g id="edge20" class="edge">
<title>[root] root&#45;&gt;[root] provider[&quot;registry.terraform.io/hashicorp/null&quot;] (close)</title>
<path fill="none" stroke="black" d="M588.79,-441.24C646.4,-430.54 751.86,-410.96 829.15,-396.61"/>
<polygon fill="black" stroke="black" points="830.19,-399.98 839.39,-394.71 828.92,-393.1 830.19,-399.98"/>
</g>
</g>
</svg>
